<?xml version="1.0" encoding="utf-8"?>
<!-- Generator: Adobe Illustrator 26.4.1, SVG Export Plug-In . SVG Version: 6.00 Build 0)  -->
<svg version="1.0" id="Layer_1" xmlns="http://www.w3.org/2000/svg" xmlns:xlink="http://www.w3.org/1999/xlink" x="0px" y="0px"
	 viewBox="0 0 100 100" enable-background="new 0 0 100 100" xml:space="preserve">
<circle fill="#414042" cx="50" cy="50" r="47.5"/>
<g>
	<g>
		<g>
			<g>
				<g>
					<path fill="#89664C" d="M70,26.8l2.5,2.6l5.4-3.5c2.2-0.3,3.3-5-2.8-3.5C73.4,22.8,71.2,23.9,70,26.8z"/>
					<path fill="#594640" d="M78.9,25.9c1.8-0.7,0.5-2.8,0.5-2.8s0.4,1.5-2.4,1.9c-4.1,0.6-5.2,3.6-5.2,3.6l0.7,0.7
						C72.4,29.4,74.8,27.5,78.9,25.9z"/>
					<path fill="#699635" d="M71.2,24.9c8.9,9.3,1.2,23.4-7.6,39.7c-0.7,1.4-1.5,2.7-2.2,4.1C55.2,80.3,46,81.5,41.1,81.2
						c-5.5-0.4-11-3-14.8-6.9c-3.8-4-6.3-9.9-6.7-15.8c-0.4-5.3,0.5-15.2,11.2-22.1c1.2-0.8,2.5-1.6,3.7-2.5
						C49.4,24.1,62.4,15.6,71.2,24.9z"/>
					<path fill="#C7E755" d="M32.5,38.9C47.1,29.4,62,18.4,69.8,26.6c7.8,8.2-7.5,18.7-16.1,34.7c-8.5,15.9-19,18.6-25.9,11.4
						C20.9,65.3,17.9,48.4,32.5,38.9z"/>
					<path fill="#C7E755" d="M29.3,71c1.6,1.7,3.3,2.5,5.3,2.7c5.6,0.4,11.7-4.8,16.7-14.3c3-5.5,6.7-10.4,10-14.7
						c5.2-6.8,10.1-13.2,6.9-16.5c-5.3-5.6-19.1,3.5-30.2,10.7c-1.2,0.8-2.5,1.7-3.8,2.5c-9.1,5.9-9.9,14.1-9.6,18.4
						C25.1,64.1,26.8,68.3,29.3,71z"/>
					<g opacity="0.33" enable-background="new    ">
						<path fill="#FFCE31" d="M29.3,71c1.6,1.7,3.3,2.5,5.3,2.7c5.6,0.4,11.7-4.8,16.7-14.3c3-5.5,6.7-10.4,10-14.7
							c5.2-6.8,10.1-13.2,6.9-16.5c-5.3-5.6-19.1,3.5-30.2,10.7c-1.2,0.8-2.5,1.7-3.8,2.5c-9.1,5.9-9.9,14.1-9.6,18.4
							C25.1,64.1,26.8,68.3,29.3,71z"/>
					</g>
					<path fill="#89664C" d="M34.7,46c6-6.6,14.9-6,16.7-2c1.8,4-0.8,10-4.8,14.5C42.5,63,37,65.9,33.2,64
						C29.4,62.2,28.7,52.7,34.7,46z"/>
					<path fill="#D3976E" d="M34.1,52.7c2.6-3.9,5.4-4.8,4.9-3.9c-0.4,0.9-1.8,3.1-2.7,5.1c-0.9,2-1.4,3.7-2.4,4.3
						C32.8,59,31.5,56.7,34.1,52.7z"/>
					<path fill="#594640" d="M44,55.8c-3.5,3.8-7.8,6.7-11.7,7.5c0.3,0.3,0.6,0.6,1,0.7c3.8,1.9,9.3-1.1,13.4-5.5
						c4-4.5,6.7-10.5,4.8-14.5c-0.2-0.4-0.4-0.7-0.7-1C50,47.2,47.4,51.9,44,55.8z"/>
				</g>
			</g>
		</g>
	</g>
</g>
<g>
</g>
<g>
</g>
<g>
</g>
<g>
</g>
<g>
</g>
<g>
</g>
</svg>
