<?xml version="1.0" encoding="utf-8"?>
<!-- Generator: Adobe Illustrator 26.4.1, SVG Export Plug-In . SVG Version: 6.00 Build 0)  -->
<svg version="1.0" id="Layer_1" xmlns="http://www.w3.org/2000/svg" xmlns:xlink="http://www.w3.org/1999/xlink" x="0px" y="0px"
	 viewBox="0 0 100 100" enable-background="new 0 0 100 100" xml:space="preserve">
<linearGradient id="SVGID_1_" gradientUnits="userSpaceOnUse" x1="50" y1="5" x2="50" y2="95">
	<stop  offset="0" style="stop-color:#F7941D"/>
	<stop  offset="3.087273e-02" style="stop-color:#FBB040"/>
	<stop  offset="1" style="stop-color:#92278F"/>
</linearGradient>
<circle fill="url(#SVGID_1_)" stroke="#231F20" stroke-miterlimit="10" cx="50" cy="50" r="45"/>
<g>
	
		<image overflow="visible" opacity="0.75" width="219" height="233" xlink:href="E4AC7B5340325451.png"  transform="matrix(0.24 0 0 0.24 22.68 26.52)">
	</image>
	<g>
		<g>
			<g>
				<circle fill="#FFDD67" cx="50" cy="49.9" r="23.2"/>
				<path fill="#917524" d="M35.2,35c2.8-1.6,6.2-1.9,9.3-0.8c0.4,0.2,1.1-1.4,0.6-1.6c-3.5-1.3-7.5-1-10.8,0.9
					C33.9,33.8,34.9,35.2,35.2,35z"/>
				<path fill="#917524" d="M55.1,37.5c2.8-1.6,6.2-1.9,9.3-0.8c0.4,0.2,1.1-1.4,0.6-1.6c-3.5-1.3-7.5-1-10.8,0.9
					C53.8,36.3,54.7,37.7,55.1,37.5z"/>
				<path fill="#664E27" d="M43.5,53.8c4.2-1.1,8.9-0.3,12.5,2.1c0.9,0.6-0.8,2.9-1.7,2.2c-2.4-1.6-6.1-2.7-10.1-1.7
					C43.2,56.7,42.4,54.1,43.5,53.8z"/>
				<path fill="#FFFFFF" d="M58.9,49.2c-3.4,0-6.2-2.8-6.2-6.2c0-1.4,0.5-2.7,1.3-3.7c1.4-0.4,3-0.6,4.6-0.6c2,0,3.9,0.3,5.5,0.9
					c0.7,1,1,2.2,1,3.5C65.2,46.4,62.4,49.2,58.9,49.2z"/>
				<path fill="#664E27" d="M59.8,38.7c0.4,0.5,0.6,1.1,0.6,1.8c0,1.7-1.4,3.1-3.1,3.1c-1.7,0-3.1-1.4-3.1-3.1
					c0-0.5,0.1-0.9,0.3-1.3c1.3-0.3,2.7-0.5,4.2-0.5C59,38.6,59.4,38.6,59.8,38.7z"/>
				<path fill="#FFFFFF" d="M41,49.2c-3.4,0-6.2-2.8-6.2-6.2c0-1.4,0.5-2.7,1.3-3.7c1.4-0.4,3-0.6,4.6-0.6c2,0,3.9,0.3,5.5,0.9
					c0.7,1,1,2.2,1,3.5C47.3,46.4,44.5,49.2,41,49.2z"/>
				<path fill="#664E27" d="M41.9,38.7c0.4,0.5,0.6,1.1,0.6,1.8c0,1.7-1.4,3.1-3.1,3.1s-3.1-1.4-3.1-3.1c0-0.5,0.1-0.9,0.3-1.3
					c1.3-0.3,2.7-0.5,4.2-0.5C41.1,38.6,41.5,38.6,41.9,38.7z"/>
				<path fill="#FFFFFF" d="M50.5,61.5c-3.5,0.8-12.3,1.9-13.9,0.3c-0.7-0.7-0.6-1.8-0.4-3.7c0.2-1.9-1.6-3.9-2.9-4.1
					c-1.6-0.2-2.5,1-1.9,2.6c1.2,3.7-1.1,4.9-1.2,7.6c-0.1,1.6-0.6,4.2,1.8,7.6c2.7,3.8,7.4,3.9,9.1,3.8c1.9-0.1,2.7-0.1,3.2-1
					c0.5-1,0.3-1.2,0.5-1.6c0.5-0.8,0.7-0.7,0.9-1.5c0.2-0.9-0.4-1.5-0.3-1.9c0.3-1,1.2-0.8,0.3-3.1c2.8-0.4,4.7-0.9,6.3-1.8
					C55,63,52.4,61.1,50.5,61.5z"/>
				<path fill="#CCCFD4" d="M31.7,55.8c0.6,2.8,0.8,3.7-0.3,5.9c-1.4,3-2,11.4,6.9,13.1c5.4,1,6.2-0.4,6-1.8
					c-0.1-0.9,0.6-1.3,0.8-1.6c0.6-1-0.3-1.5-0.3-1.9c0-0.8,0.7-0.7,0.9-1.5c0.2-1.4-1.4-1.8,0-1.9c2.7-0.2,4.6-0.6,6.2-1.8
					c1.5-1,0.5-3.1-1.5-2.6c-4.7,1-11.6,2.2-13.9,0c-1.1-1-0.2-2.1-0.3-4.4C35.9,54.5,31.1,53.3,31.7,55.8z M38,76.2L38,76.2
					c-2.8-0.5-5.1-1.9-6.6-3.9c-2.3-3.2-2.1-5.8-2-7.5c0-0.2,0-0.4,0-0.5c0-1.2,0.5-2.1,0.8-3c0.6-1.3,1.1-2.4,0.4-4.4
					c-0.4-1.1-0.2-2.1,0.4-2.8c0.5-0.6,1.4-0.9,2.4-0.8c0,0,0.1,0,0.1,0c1.8,0.3,3.8,2.7,3.5,4.9c-0.2,1.8-0.3,2.7,0.1,3.1
					c0.1,0.1,0.4,0.3,1.2,0.4c3.1,0.5,9.3-0.3,11.9-0.9c0.4-0.1,0.9-0.1,1.4,0c1.2,0.2,2.2,1,2.4,1.9c0.1,0.6,0.1,1.6-1.7,2.6
					c-1.6,0.9-3.4,1.4-5.8,1.8c0.6,1.6-0.9,2.3-0.6,2.9c0.5,0.9,0.3,1.7-0.6,2.5c-0.7,0.6,0.1,1.3-0.5,2.5c-0.7,1.3-2,1.3-3.8,1.4
					C40,76.4,39,76.4,38,76.2z"/>
			</g>
		</g>
	</g>
</g>
<g>
</g>
<g>
</g>
<g>
</g>
<g>
</g>
<g>
</g>
<g>
</g>
</svg>
