<?xml version="1.0" encoding="utf-8"?>
<!-- Generator: Adobe Illustrator 26.4.1, SVG Export Plug-In . SVG Version: 6.00 Build 0)  -->
<svg version="1.0" id="Layer_1" xmlns="http://www.w3.org/2000/svg" xmlns:xlink="http://www.w3.org/1999/xlink" x="0px" y="0px"
	 viewBox="0 0 100 100" enable-background="new 0 0 100 100" xml:space="preserve">
<linearGradient id="SVGID_1_" gradientUnits="userSpaceOnUse" x1="50" y1="97.5" x2="50" y2="2.5">
	<stop  offset="0" style="stop-color:#F15A29"/>
	<stop  offset="1" style="stop-color:#F9ED32"/>
</linearGradient>
<circle fill="url(#SVGID_1_)" stroke="#231F20" stroke-miterlimit="10" cx="50" cy="50" r="47.5"/>
<g>
	<path d="M33.2,46.5c0,0.2-0.1,0.4-0.2,0.6h0c-0.2,0-0.2,0.2-0.4,0.3c-0.2,0.6-0.7,1-1,1.5c-0.2,0.2-0.3,0.5-0.5,0.7
		c-0.2,0.2-0.4,0.4-0.5,0.6c0,0.1,0,0.2-0.1,0.3c0,0-0.1,0-0.2,0.1c0,0.1,0,0.2-0.1,0.3c-0.2,0.3-0.5,0.5-0.7,0.8
		c-0.2,0.4-0.4,0.8-0.7,1.1c-0.3,0.3-0.5,0.7-0.7,1.1c-0.1,0.1-0.1,0.3-0.2,0.5c-0.1,0.1-0.2,0.1-0.3,0.3c-0.1,0.1-0.1,0.3-0.2,0.5
		c-0.2,0.4-0.5,0.7-0.7,1.1c-0.5,0.8-0.9,1.6-1.3,2.5c-0.1,0.3-0.1,0.6-0.5,0.7c-0.3,0-0.4-0.2-0.4-0.4c0-0.3,0.1-0.6,0.1-0.8
		c0-0.1,0-0.3-0.1-0.4h0c-0.1,0-0.2,0.2-0.4,0.2c0,0-0.1-0.1-0.1-0.1c-0.1,0-0.1,0-0.1,0S24,58,24,58.1c0,0.2-0.4,1.1-0.6,1.1
		c-0.4,0-0.2-0.5-0.4-0.7c-0.4,0-0.5,0.3-0.8,0.5c-0.2,0-0.4-0.1-0.4-0.3c-0.3,0-0.5,0.4-0.8,0.4c-0.1,0-0.1,0-0.2-0.1
		c0-0.2,0-0.4,0-0.6c0-0.6,0.1-1.5,0.4-2.1C21,56.2,21,55.9,21,55.6c0-0.9,0.3-1.6,0.3-2.5c0-0.2,0-0.3,0-0.5h-0.1
		c-0.2,0-0.5,0.3-0.6,0.5c0,0.1,0,0.2-0.1,0.3c-0.1,0.2-0.3,0.4-0.4,0.6c-0.3,0.4-0.5,0.7-0.8,1.1c-0.2,0.3-0.5,0.7-0.7,1
		c0,0.1,0,0.2-0.1,0.3c-0.1,0.1-0.3,0.2-0.4,0.4c0,0.1,0,0.2-0.1,0.3c0,0.1-0.1,0.1-0.2,0.2c0,0.1,0,0.2-0.1,0.3c0,0-0.1,0-0.2,0.1
		c-0.1,0.1-0.3,0.8-0.5,1c-0.1,0.2-0.4,0.7-0.6,0.7c-0.4,0-0.3-0.6-0.6-0.7c0,0,0,0-0.1,0c-0.3,0-0.4,0.2-0.6,0.2
		c-0.3,0-0.2-0.5-0.2-0.6c0-0.1,0-0.3-0.1-0.3c-0.5,0.1-0.6,0.7-0.8,1c-0.1,0-0.2-0.1-0.4-0.1c-0.4,0-0.6,0.4-1,0.4
		c-0.1-0.1-0.1-0.3-0.1-0.5c0-0.4,0.1-0.7,0.2-1.1c0.2-1.4,0.2-2.8,0.4-4.2c0.1-0.4,0.1-0.7,0.2-1.1c0.1-0.6,0.2-1.2,0.4-1.8
		c0.4-1.8,0.7-3.5,1.3-5.3c0.1,0,0.2,0,0.2,0c0.4,0,0.5-0.2,0.9-0.3c0.1,0.2,0.1,0.5,0.3,0.7c0.2,0,0.3-0.4,0.6-0.3l0.1,0
		c0.1,0.3,0.1,0.6,0.3,0.9c0.7-0.1,0.6-1.2,1.1-1.2c0.2,0,0.2,0.2,0.4,0.3c-0.1,1-0.5,1.8-0.7,2.8c0,0.3,0,0.6-0.1,0.8
		c-0.1,0.6-0.3,1.1-0.3,1.7c0,0.1,0,0.3,0.2,0.3c0.3-0.1,0.4-0.4,0.6-0.6c1-1.7,1.9-3.5,3.3-5l0,0c0.3-0.2,0.1,0.6,0.5,0.6
		c0.3,0,0.4-0.3,0.6-0.3c0.3,0,0.2,0.6,0.2,0.8c0,0.1,0,0.3,0.1,0.4c0.6-0.2,0.4-1.3,0.9-1.6c0,0,0.1,0,0.1,0c0.3,0,0.3,0.4,0.5,0.5
		c0.1,0.1,0.3,0,0.5,0c0.1,0,0.3,0,0.3,0.2c-0.1,1.5-0.8,2.8-0.8,4.3c0,0.2,0,0.4,0,0.7c0.6-0.3,0.8-1,1-1.5
		c0.1-0.3,0.3-0.6,0.4-0.8c0.1-0.1,0.1-0.3,0.2-0.5c0.1-0.1,0.2-0.1,0.3-0.3c0.1-0.1,0.1-0.3,0.2-0.5c0.2-0.3,1.6-2.4,1.8-2.5
		c0,0,0.1,0,0.1,0c0.3,0,0.2,0.4,0.4,0.4c0.5,0,0.6-0.6,1.1-0.6c0,0.1,0.1,0.2,0.1,0.3c0,0.4-0.2,0.7-0.2,1.1c0,0.1,0,0.2,0.1,0.3
		c0.6-0.1,0.8-0.8,1.4-1c0.3,0,0.3,0.3,0.5,0.4c0.7-0.2,0.8-0.8,1.7-0.8c0.1,0.1,0.1,0.3,0.1,0.4C34.4,45.9,33.7,46.4,33.2,46.5z
		 M15.2,55.6c0-0.1,0-0.4-0.2-0.3l0,0c0,0-0.1,0.1-0.1,0.2c0,0.1,0.1,0.2,0.2,0.2c0,0,0.1,0,0.1,0V55.6z M15.2,56.7
		C15.2,56.7,15.2,56.7,15.2,56.7l-0.1,0.1c0,0.2,0.1,0.4,0.4,0.4c0,0,0.1-0.1,0.1-0.2C15.6,56.8,15.4,56.7,15.2,56.7z M15.7,55.8
		c0,0-0.1,0.1-0.1,0.2c0,0.1,0.1,0.2,0.2,0.2l0,0c0,0,0.1-0.1,0.1-0.1C15.9,55.9,15.8,55.8,15.7,55.8z M26,52.9c0,0,0-0.1,0-0.2
		c0-0.3-0.1-0.5-0.4-0.5c-0.1,0.1-0.2,0.2-0.2,0.4c0,0,0,0.1,0,0.1c0.1,0.1,0.3,0.1,0.4,0.1H26z"/>
	<path d="M43.6,54.6c-0.2,0.3-0.5,0.6-0.7,0.9c-0.1,0.1-0.1,0.2-0.2,0.4c-0.1,0.2-0.4,0.3-0.6,0.5c-0.1,0.1-0.1,0.2-0.2,0.4
		c-0.2,0.3-0.5,0.6-0.7,0.8c-0.2,0.1-0.4,0.2-0.6,0.4c-0.1,0.1-0.1,0.2-0.2,0.3c-0.1,0-0.2,0-0.3,0.1c-0.2,0.1-0.3,0.3-0.5,0.5
		c-1.1,0.8-2.8,1.1-4.1,1.1c-1.2,0-2.4-0.2-3.5-0.6c0-0.2,0.1-0.4,0.1-0.7c0-0.1-0.1-0.3-0.2-0.4c0-0.3,0.3-0.3,0.3-0.6
		c0-0.2-0.5-0.1-0.6-0.1c0,0-0.1,0-0.1,0c-0.1-0.1-0.1-0.3-0.3-0.4c-0.4,0-0.5,0.4-0.9,0.4c0,0-0.1,0-0.1,0
		c-0.2-0.1-0.3-0.4-0.3-0.6c0-0.4,0.2-0.9,0.5-1.2c0-1.1,0.6-2,0.9-2.9c0.2-0.5,0.3-1,0.5-1.5c0.8-2.1,1.6-4.1,2.5-6.2
		c0.2-0.5,0.5-1,1-1.3v0c0-0.3-0.5-0.2-0.5-0.6c0-0.4,0.4-0.2,0.4-0.8c0-0.1,0-0.2,0.1-0.3c0.4-0.1,0.9-0.1,1.3-0.4c0,0,0-0.1,0-0.1
		c0-0.3-0.5-0.3-0.5-0.5c0-0.2,0.3-0.3,0.3-0.5c0-0.2-0.3-0.3-0.3-0.5v-0.1c1.6-0.3,3.2-0.4,4.8-0.4c1.1,0,2.2,0.1,3.3,0.3
		c0.1,0,0.3,0,0.4,0.1l0.1,0.2c1.4,0.6,1.6,2.9,1.6,4.2C46.5,47.4,45.3,51.8,43.6,54.6z M40.8,43.4c-0.3,0-0.5,0-0.7,0.3
		c-0.4,0.6-1.4,2.9-1.6,3.7c-0.5,1.4-1.3,2.8-1.7,4.2c0,0.1,0,0.3-0.1,0.5c-0.3,1-0.9,1.8-1.1,2.8c0.2,0.4,0.6,0.6,1,0.6
		c3.3,0,5.7-7.7,5.7-10.4C42.2,44.3,41.7,43.4,40.8,43.4z M37.6,44c0-0.1-0.1-0.3-0.2-0.3l0,0c0,0.1-0.1,0.1-0.1,0.2
		c0,0.1,0,0.2,0.2,0.2c0.1,0,0.1,0,0.2,0V44z M38.5,56.4c-0.1,0-0.2,0.2-0.2,0.4c0,0.1,0.1,0.3,0.2,0.3c0,0,0.1,0,0.1,0
		c0-0.1,0-0.2,0-0.3C38.7,56.6,38.6,56.5,38.5,56.4z M39,41.6c-0.2,0-0.3,0.1-0.3,0.3c0.2,0,0.3,0.2,0.4,0.2h0
		c0-0.1,0.1-0.2,0.1-0.3C39.2,41.7,39.1,41.6,39,41.6z M40.3,56.4h-0.1c-0.1,0-0.2,0.1-0.2,0.2c0.1,0,0.2,0.1,0.3,0.1c0,0,0,0,0.1,0
		V56.4z M41.2,53.8c0-0.1,0-0.3-0.2-0.3h0c0,0-0.1,0.1-0.1,0.2c0,0.1,0.1,0.3,0.2,0.3c0,0,0.1,0,0.1,0V53.8z M42.1,52.1
		C42.1,52.1,42.1,52.1,42.1,52.1C42,52.2,42,52.3,42,52.4c0,0.1,0.1,0.3,0.2,0.3c0,0,0,0,0,0c0.1-0.1,0.1-0.2,0.1-0.3
		C42.3,52.2,42.2,52.1,42.1,52.1z"/>
	<path d="M60.9,45.2c0,0.4-0.2,0.7-0.3,1.1c-0.1,0.5,0,1.3-0.5,1.7c0,1.2-0.5,2.1-0.8,3.2c-0.1,0.2-0.1,0.4-0.2,0.6
		c-0.6,1.8-1.8,3.4-2.9,5c-0.5,0.7-1.2,1.4-1.9,1.8c-0.1,0.1-0.3,0.2-0.5,0.3c-0.2,0.2-0.6,0.2-0.9,0.4c-1,0.4-1.3,0.6-2.4,0.6
		c-1.1,0-1.9-0.3-2.8-0.7c-0.1,0-0.1,0-0.2-0.1c-0.2-0.2-0.5-0.3-0.7-0.5c-0.2-0.1-0.3-0.5-0.5-0.7c-0.5-0.9-0.7-2-0.7-3.1
		c0-0.4,0-0.8,0.1-1.3c0.2-2,1.8-6.7,2.9-8.5c0.1-0.2,0.3-0.4,0.5-0.7c0.1-0.2,0.2-0.5,0.4-0.7c0.4-0.7,1-1.2,1.5-1.8
		c0.2-0.2,0.3-0.5,0.5-0.6c0.2-0.2,0.5-0.3,0.7-0.5c0.7-0.5,1.5-1.1,2.5-1.1c0.2,0,0,0.4,0.2,0.5c0.1,0.2,0.5,0.2,0.7,0.4
		c0,0.2-0.2,0.3-0.2,0.5c0,0,0,0,0,0.1c0.4,0.2,1.1,0,1.4,0.3c0.3-0.1,0.3-0.4,0.3-0.7c0.2-0.1,0.4,0,0.6-0.2v0
		c0-0.2-0.4-0.3-0.4-0.5c0,0,0-0.1,0.1-0.1c0.1-0.3,0.4-0.4,0.7-0.4c0.6,0,0.8,0.2,1.3,0.4c0.5,0.3,0.6,0.3,1,0.7
		c0.8,1,0.9,2.3,0.9,3.5C61,44.6,61,44.9,60.9,45.2z M48.3,56.7H48c-0.1,0.1-0.1,0.2-0.1,0.3c0,0.1,0.1,0.3,0.2,0.3c0,0,0.1,0,0.1,0
		V56.7z M48.5,54.8c0-0.2-0.1-0.2-0.3-0.3c-0.1,0.1-0.1,0.2-0.1,0.3c0,0,0,0.1,0,0.1h0C48.3,54.9,48.4,54.9,48.5,54.8L48.5,54.8z
		 M49,51.6c-0.1,0-0.1-0.1-0.2-0.1c-0.2,0-0.3,0.1-0.3,0.3c0,0.2,0.2,0.3,0.3,0.3C48.8,51.9,49,51.8,49,51.6L49,51.6z M56.3,43.8
		c-0.1,0-0.2,0-0.3,0c-0.2,0-0.4,0-0.7,0c-0.3,0-0.5,0.2-0.8,0.2c-0.1,0-0.1,0-0.2-0.1c0-0.1,0-0.3-0.1-0.3h0c0,0,0,0.1,0,0.1
		c0,0.1,0,0.2,0.1,0.3c-0.3,0.5-0.7,1-1.2,1.3c-0.8,2.6-2.9,5.6-2.9,8.3c0,0.8,0.1,1.9,1.2,1.9c0.1,0,0.3,0,0.4,0
		c0.6-0.1,1.4-1.3,1.7-1.8c1-1.5,1.5-3.2,2.1-4.9c0.4-1.1,1-2.4,1-3.5C56.6,44.8,56.2,44.2,56.3,43.8z M56.8,51.4L56.8,51.4
		c-0.1,0.1-0.1,0.2-0.1,0.3c0,0.2,0.1,0.3,0.3,0.3c0,0,0.1,0,0.1,0c0-0.1,0-0.1,0-0.2C57.1,51.5,57,51.3,56.8,51.4z M58.5,42.1
		c0-0.2-0.1-0.3-0.3-0.3c-0.1,0-0.2,0-0.2,0.1v0c0,0.1,0.1,0.2,0.1,0.3c0,0,0.1,0,0.1,0C58.2,42.2,58.4,42.2,58.5,42.1L58.5,42.1z
		 M58.7,46.6V46h-0.3c0,0.2-0.1,0.3-0.1,0.5c0,0,0,0.1,0,0.2H58.7z M58.9,42.6L58.9,42.6c-0.2,0-0.3,0-0.4,0.2
		c0.1,0,0.2,0.1,0.3,0.1c0,0,0,0,0.1,0V42.6z"/>
	<path d="M74.5,42.8c0,0.1,0,0.2,0,0.2c0,0-0.1,0-0.2,0c-0.2,0-0.4-0.2-0.7-0.2c-0.3,0-0.1,0.5-0.4,0.5c-0.2,0-0.4-0.1-0.6-0.1
		c-0.1,0-0.1,0-0.2,0v0.1c0,0.5,0.4,0.6,0.4,1.1c-0.1,0.1-0.5,0.1-0.7,0.1c-0.6,0-0.3,0.4-0.8,0.4c-0.5,0-0.7-1.2-1.5-1.2
		c-0.3,0-0.8,0.1-1.1,0.2c-1.6,0.7-3.2,4.8-3.8,6.3c-0.3,1-0.9,1.9-0.9,3c0,1,0.4,2.4,1.7,2.4c0.3,0,0.5-0.1,0.7-0.2
		c0.3-0.1,1.1-0.7,1.3-1c0-0.1,0-0.2,0.1-0.3c0,0,0.1,0,0.2-0.1c0.1-0.1,0.3-0.6,0.5-0.8c0.2-0.3,0.6-0.6,0.6-1c0,0,0-0.1,0-0.2
		C68.9,51.9,68.3,52,68,52c-0.2,0-0.7-0.1-0.7-0.4c0-0.2,0.2-0.3,0.2-0.5c-0.1-0.3-0.6-0.1-0.7-0.4c0-0.5,0.8-0.3,1.1-0.6V50
		c0-0.2-0.3-0.4-0.3-0.5c0-0.1,0.1-0.1,0.2-0.2c0-0.3-0.4-0.3-0.4-0.6c0-0.9,2.2-0.6,2.8-0.6c0.9,0,1.8-0.2,2.8-0.2
		c0,0.1,0.1,0.1,0.1,0.2c0,0.2-0.1,0.4-0.1,0.6c0,0.5,0.4,0.2,0.6,0.4c0,0,0,0.1,0,0.1c0,0.2-0.2,0.3-0.2,0.6c0.3,0.2,1,0,1.1,0.3
		c0,0.6-0.4,1.2-0.6,1.7c-0.2,0.4-0.4,1.4-0.6,1.7c0,0.1-0.2,0.1-0.2,0.2c-0.1,0.2-0.2,0.6-0.3,0.9c-0.3,0.7-0.8,1.3-1.2,1.9
		c-1.5,1.8-4,3.6-6.4,3.6c-1.1,0-2.2-0.3-3.2-0.7c-0.1,0-0.6-0.5-0.7-0.6c-0.3-0.3-0.6-0.6-0.7-1c0-0.1,0-0.2-0.1-0.4
		c-0.1-0.3-0.3-0.6-0.4-0.9c-0.1-0.4-0.1-0.9-0.1-1.3c0-1.7,0.7-4.5,1.3-6.1c0.3-0.8,0.7-1.5,1-2.2c0.3-0.7,0.6-1.6,1.2-2v0
		c0-0.2,0.2-0.4,0.2-0.7c0.6-0.6,0.9-1.4,1.4-1.9c0-0.1,0.1-0.1,0.2-0.2c1.2-1.5,3.4-2.6,5.3-2.6c1.1,0,2.1,0.2,3,0.8
		c0.1,0.1,0.2,0.3,0.4,0.4c0.1,0.1,0.3,0.1,0.5,0.3c0.4,0.4,0.7,0.9,1,1.4C75.1,42.5,74.5,42.4,74.5,42.8z M62.7,55.5v-0.4
		c0,0-0.1-0.1-0.2-0.1c-0.1,0-0.3,0.1-0.3,0.3c0,0.1,0,0.1,0.1,0.2H62.7z M68.9,41.5c-0.1,0-0.2-0.1-0.3-0.1c0,0,0,0-0.1,0
		c-0.1,0.1-0.1,0.2-0.1,0.3c0,0.1,0,0.2,0.1,0.3C68.7,42,68.9,41.8,68.9,41.5L68.9,41.5z M70.9,50.6c0,0-0.1,0-0.1,0v0
		c0,0.2,0.1,0.3,0.3,0.2l0.1,0c0,0,0-0.1,0-0.1C71.2,50.6,71.1,50.6,70.9,50.6z M72.6,42.2c0-0.2-0.2-0.3-0.4-0.3
		c-0.1,0-0.2,0-0.2,0.1l0,0.1c0,0.2,0.2,0.2,0.3,0.2C72.4,42.3,72.5,42.3,72.6,42.2L72.6,42.2z"/>
	<path d="M86.9,42c0.1,0.2,0.2,0.4,0.2,0.7c0,0.4-0.3,0.4-0.4,0.6h-0.4c-1,0-2.1,0.1-3,0.4c-0.2,0.3-1.6,3-1.8,3.5
		c0.2,0.3,0.7,0.3,1,0.3s0.6,0,0.9,0s0.7,0,0.9,0.3v0.1c0,0.2-0.2,0.3-0.3,0.5c0.1,0.3,0.6,0.2,0.7,0.5c0,0.4-0.8,0.3-1.1,0.5
		c0,0,0,0.1,0,0.1c0,0.1,0.2,0.3,0.2,0.7c0,0.2,0.3,0.5,0.4,0.7c-0.1,0.8-1.3,0.6-1.9,0.6c-0.6,0-2.1,0-2.6,0.2
		c-0.3,0.1-0.2,0.3-0.3,0.6c-0.1,0.2-0.2,0.3-0.3,0.5c-0.2,0.4-0.2,0.8-0.4,1.2c-0.3,0.7-0.7,1.3-0.9,2.1c0.1,0.2,0.3,0.3,0.5,0.3
		c0.3,0,0.5-0.1,0.8-0.1c0.8-0.1,1.6-0.1,2.4-0.2c0,0.4-0.2,0.7-0.2,1.1c0,0.3,0.6,0,0.6,0.4c0,0.5-0.6,0.6-0.7,1
		c0.2,0.3,0.9,0,1.1,0.4c0,0.3-0.5,0.8-0.8,0.9c-1,0.3-2.1,0.4-3.1,0.4c-0.6,0-1.2-0.1-1.7-0.1c-0.6,0-1.2,0-1.8,0
		c-0.5,0-1,0-1.4-0.2c0,0,0-0.1,0-0.1c0-0.2,0.1-0.4,0.1-0.6c0-0.4-0.7-0.3-0.9-0.5c0.1-0.7,0.3-1.4,0.6-2c1.2-3.4,2.5-6.9,4.1-10.1
		c0.3-0.6,0.5-1.2,0.8-1.7c0.3-0.5,0.7-1.1,1.2-1.5c-0.1-0.2-0.5-0.2-0.6-0.4c0-0.4-0.3-0.6-0.4-1c0.2-0.1,1.2-0.1,1.2-0.4
		c0-0.4-0.5-0.2-0.5-0.5c-0.1-0.1-0.2-0.3-0.2-0.5l0-0.1c0-0.3,0.4-0.3,0.7-0.3c2.3-0.1,4.6-0.5,6.9-0.5l0.7,0c-0.1,0.3,0,0.6,0,0.9
		c0,0.1,0,0.3,0,0.4c0,0.4,0.6,0.1,0.6,0.5C87.5,41.9,87,41.7,86.9,42z M76.2,56v-0.2c0-0.1,0-0.3-0.2-0.3c-0.1,0.1-0.2,0.2-0.2,0.4
		c0,0,0,0.1,0,0.1H76.2z M78.8,49.9c0,0-0.1,0-0.1,0c-0.1,0.1-0.1,0.2-0.1,0.3c0,0.1,0,0.2,0.1,0.3l0.1,0c0.3,0,0.3-0.3,0.4-0.6
		C79,49.9,78.9,49.9,78.8,49.9z M79.9,47.1c-0.2,0-0.2-0.2-0.4-0.2h0c0,0.1-0.1,0.2-0.1,0.3c0,0,0,0,0,0.1c0.1,0,0.2,0,0.3,0
		c0.1,0,0.3,0,0.3-0.2C80,47.1,80,47.1,79.9,47.1z"/>
</g>
<g>
</g>
<g>
</g>
<g>
</g>
<g>
</g>
<g>
</g>
<g>
</g>
</svg>
