<?xml version="1.0" encoding="utf-8"?>
<!-- Generator: Adobe Illustrator 26.4.1, SVG Export Plug-In . SVG Version: 6.00 Build 0)  -->
<svg version="1.0" id="Layer_1" xmlns="http://www.w3.org/2000/svg" xmlns:xlink="http://www.w3.org/1999/xlink" x="0px" y="0px"
	 viewBox="0 0 100 100" enable-background="new 0 0 100 100" xml:space="preserve">
<g>
	<path fill="#FEFEFE" d="M44.5,97.5c-14,0-28,0-42,0c0-31.6,0-63.3,0-95c31.7,0,63.3,0,95,0c0,14,0,28,0,42
		c-0.1-0.1-0.3-0.1-0.4-0.1c-0.8-6.9-3.1-13.3-6.9-19.1c-11-16.9-30-24.8-49.7-20.8C20.5,8.7,4.9,26.6,3.6,47
		c-0.8,11.9,2.3,22.7,9.6,32.2c7.9,10.2,18.3,16.3,31.2,17.9C44.4,97.2,44.5,97.3,44.5,97.5z"/>
	<path fill="#010101" d="M44.4,97.1c-12.9-1.6-23.3-7.8-31.2-17.9C5.9,69.7,2.8,58.9,3.6,47C4.9,26.6,20.5,8.7,40.5,4.6
		c19.7-4.1,38.7,3.8,49.7,20.8c3.8,5.8,6.1,12.2,6.9,19.1c0,0.5,0,1.1,0,1.6c0,0.5,0,1.1,0,1.6c0.2,0.5,0.3,1.1,0.5,1.6
		c0,0.9,0,1.8,0,2.6c-0.2,0.5-0.3,1.1-0.5,1.6c0,0.5,0,1.1,0,1.6c0,0.5,0,1.1,0,1.6c-1,8.4-4.1,15.9-9.3,22.5
		c-7.9,10.2-18.3,16.3-31.2,18c-0.9,0.1-1.8,0.3-2.7,0.4c-2.3,0-4.5,0-6.8,0C46.2,97.4,45.3,97.2,44.4,97.1z M14.5,23.4
		C14.5,23.4,14.5,23.4,14.5,23.4c-0.1,0.2-0.3,0.4-0.4,0.6l0,0c-0.1,0.2-0.3,0.3-0.4,0.5c-0.2,0-0.2,0.2-0.2,0.3
		c-1.2,2.2-2.5,4.3-3.7,6.5c-0.8,2.3-1.7,4.5-2.5,6.8c-0.5,2.9-1.1,5.9-1.6,8.8c0,3,0.1,6.1,0.1,9.1c0.4,1.9,0.7,3.9,1.1,5.8
		c0.5,1.6,1,3.1,1.6,4.7c0.9,1.9,1.8,3.8,2.7,5.8c1.4,2.1,2.8,4.2,4.2,6.3c0.1,0.2,0.3,0.4,0.4,0.5l0,0c2.6,2.5,5.2,4.9,7.7,7.4
		c3.3,2.8,7,4.9,11.1,6.2l0.2,0.1l0.2,0c0.4,0.1,0.8,0.3,1.2,0.4l0.2,0.1c0,0,0.2,0,0.2,0c0.4,0.1,0.8,0.3,1.2,0.4
		c0.5,0.2,1,0.4,1.4,0.6c6,1.6,12,1.9,18.1,1c6-0.9,11.6-2.7,16.7-6.2c3.9-2.1,7.3-4.9,10.1-8.4c1.9-2.6,3.8-5.3,5.7-7.9
		c0.9-1.9,1.8-3.8,2.7-5.6l0,0c0.1-0.2,0.2-0.4,0.3-0.6c0.4-1.2,0.8-2.4,1.2-3.6c0.5-2.3,1-4.6,1.5-6.9c0.1-1.2,0.1-2.4,0.2-3.5
		c0-1.3,0-2.6,0-3.9c-0.4-2.8-0.7-5.6-1.1-8.4c-0.2-0.7-0.3-1.4-0.5-2c-0.9-2.3-1.7-4.6-2.6-6.9c-1.2-2.1-2.5-4.2-3.7-6.3
		c-1.4-1.7-2.8-3.5-4.2-5.2c-1.7-1.6-3.5-3.2-5.2-4.7c0,0,0,0,0,0c-0.2-0.2-0.4-0.3-0.6-0.5l0,0c-0.2-0.2-0.4-0.3-0.6-0.5
		c0,0,0,0,0,0c-0.3-0.2-0.6-0.5-1-0.7c-2.1-1.2-4.2-2.4-6.3-3.6c0,0,0,0,0,0c-0.4-0.2-0.7-0.3-1.1-0.5l0,0c-0.4-0.2-0.7-0.3-1.1-0.5
		c-5.5-2.7-11.4-3.6-17.5-3.5c-4.8,0-9.5,0.6-14,2.5C35.7,7.9,35.3,8,35,8.2c-0.2-0.1-0.3,0-0.5,0.1c-0.3,0.1-0.5,0.2-0.8,0.4
		c-0.1-0.1-0.2,0-0.3,0.1c-0.4,0.2-0.8,0.3-1.2,0.5c-0.2-0.1-0.3,0-0.4,0.1c-0.2,0.1-0.4,0.2-0.7,0.4c-0.2-0.1-0.3,0-0.4,0.1
		c-0.2,0.1-0.5,0.3-0.7,0.4c-0.2-0.1-0.3,0-0.4,0.1c-0.9,0.5-1.7,1-2.6,1.5c-3.7,1.9-6.9,4.6-9.6,7.7c0,0,0,0,0,0
		c-0.2,0.2-0.4,0.4-0.6,0.6c-0.7,0.8-1.4,1.6-2.1,2.4C14.8,22.9,14.7,23.2,14.5,23.4z"/>
	<path fill="#FEFEFE" d="M56.6,97.1c12.9-1.7,23.2-7.8,31.2-18c5.2-6.6,8.3-14.1,9.3-22.5l0.2,0l0.2-0.1c0,13.6,0,27.2,0,41
		c-13.6,0-27.3,0-40.9,0C56.6,97.3,56.6,97.2,56.6,97.1z"/>
	<path fill="#656565" d="M56.6,97.1c0,0.1-0.1,0.3-0.1,0.4c-0.9,0-1.7,0-2.6,0C54.8,97.4,55.7,97.2,56.6,97.1z"/>
	<path fill="#656565" d="M44.4,97.1c0.9,0.1,1.8,0.3,2.7,0.4c-0.9,0-1.7,0-2.6,0C44.5,97.3,44.4,97.2,44.4,97.1z"/>
	<path fill="#848484" d="M97.5,56.5l-0.2,0.1l-0.2,0c0-0.5,0-1.1,0-1.6c0.2,0,0.3-0.1,0.5,0C97.5,55.5,97.5,56,97.5,56.5z"/>
	<path fill="#181818" d="M97.5,49.2c-0.2-0.5-0.3-1.1-0.5-1.6c0.2,0,0.3,0,0.5,0C97.5,48.1,97.5,48.7,97.5,49.2z"/>
	<path fill="#404040" d="M97.5,47.6c-0.2,0-0.3,0-0.5,0c0-0.5,0-1.1,0-1.6c0.2,0,0.3,0.1,0.5,0C97.5,46.6,97.5,47.1,97.5,47.6z"/>
	<path fill="#848484" d="M97.5,46c-0.2,0-0.3,0-0.5,0c0-0.5,0-1.1,0-1.6c0.2-0.1,0.3,0,0.4,0.1C97.5,45,97.5,45.5,97.5,46z"/>
	<path fill="#181818" d="M97,53.4c0.2-0.5,0.3-1.1,0.5-1.6c0,0.5,0,1.1,0,1.6C97.3,53.4,97.2,53.4,97,53.4z"/>
	<path fill="#404040" d="M97,53.4c0.2,0,0.3,0,0.5,0c0,0.5,0,1.1,0,1.6c-0.2,0-0.3,0-0.5,0C97,54.5,97,53.9,97,53.4z"/>
	<path fill="#5CD0F0" d="M69.8,9.7c2.1,1.2,4.2,2.4,6.3,3.6c0.3,0.2,0.6,0.5,1,0.7l0,0c0.2,0.2,0.4,0.3,0.6,0.5l0,0
		c0.2,0.2,0.4,0.3,0.6,0.5c0,0,0,0,0,0c-0.1,1.2-1,1.1-1.9,1.2c-2.6,0.1-5.1,0.3-7.7,0.5c-2.1-3-4.1-3.4-7.1-1.4
		c-1.1,0.8-2.2,1.6-3.3,2.5c-1-0.2-2.1-0.7-3-0.5c-2.7,0.6-5.2,0-7.8-0.1c-2.7,0-5.5,0.4-8.2,0.6c-1.6-1.4-3.1-2.9-4.8-4.3
		c-1.9-1.6-4.1-2.1-6.5-1c-0.2-0.2-0.4-0.4-0.6-0.5c0.9-0.5,1.7-1,2.6-1.5c0.1,0.3,0.2,0.6,0.3,0.7c2.1-0.1,4-0.3,5.9-0.3
		c10.3,0,20.6,0,30.9,0c0.6,0,1.3,0.1,1.8-0.1C69,10.6,69.4,10.1,69.8,9.7z"/>
	<path fill="#5BF79E" d="M36.4,93.4l-0.2,0c0,0-0.2-0.1-0.2-0.1c-0.4-0.1-0.8-0.3-1.2-0.4l-0.2,0l-0.2-0.1c-0.1-0.4-0.2-0.7-0.3-1.1
		c0.9-0.4,1.6-0.6,2.3-0.9c0,0,0,0,0,0c0.4,0.2,0.8,0.3,1.2,0.5c1.3-0.7,2.6-1.4,4.2-2.2c0.3-0.6,0.9-1.6,1.4-2.5
		c0.3,0.5,0.7,1.1,1,1.6c0.2-0.1,0.3-0.2,0.5-0.3c0.1-1,0.1-2.1,0.2-3.2c0.5-0.1,0.9-0.1,1.3-0.2c-0.3,0.6-0.9,1.2-1,1.9
		c-0.1,1.6,0,3.3,0,4.9c0.7,0.6,1.3,1.2,1.9,1.8c1.9,0,3.8,0,5.6,0c0.7-0.6,1.4-1.1,2.1-1.8c0-2,0-4.1,0-6.2c0.3,1,0.5,2,0.8,3
		c1.3-0.1,1.9-0.7,1.8-2c0.4,1,0.9,2,1.3,2.9c1.4,0.7,2.7,1.4,4.1,2.1c0.9-0.3,2-0.6,3-1.1c1-0.5,2-1.1,3-1.7c1.6,0.3,3.2,0.7,4.9,1
		c-5,3.5-10.7,5.3-16.7,6.2c-6.1,0.9-12.1,0.6-18.1-1c-0.5-0.1-1-0.4-1.4-0.6C37.2,93.6,36.8,93.5,36.4,93.4z"/>
	<path fill="#5BCDF5" d="M69.8,9.7c-0.4,0.4-0.7,0.9-1.2,1.1c-0.5,0.2-1.2,0.1-1.8,0.1c-10.3,0-20.6,0-30.9,0
		c-1.9,0-3.8,0.2-5.9,0.3c0-0.1-0.1-0.4-0.3-0.7c0.1-0.1,0.2-0.2,0.4-0.1c0.2-0.1,0.5-0.3,0.7-0.4c0.1-0.2,0.2-0.2,0.4-0.1
		c0.2-0.1,0.4-0.2,0.7-0.4c0.1-0.2,0.3-0.2,0.4-0.1c0.4-0.2,0.8-0.3,1.2-0.5c0.1-0.1,0.2-0.2,0.3-0.1c0.3-0.1,0.5-0.2,0.8-0.4
		c0.1-0.1,0.3-0.2,0.5-0.1c0.4-0.1,0.7-0.3,1.1-0.4c4.5-1.9,9.2-2.5,14-2.5c6,0,12,0.9,17.5,3.5c0.4,0.2,0.7,0.3,1.1,0.5
		c0,0,0,0,0,0C69,9.4,69.4,9.6,69.8,9.7C69.8,9.7,69.8,9.7,69.8,9.7z"/>
	<path fill="#5CDFD1" d="M5.6,46.9c0.5-2.9,1.1-5.9,1.6-8.8c0.1,1.5,1.3,1.1,2.2,1.1c4.2,0,8.4,0.1,12.6,0.1
		c-0.5,3.3-1.1,6.6-1.6,9.9c-1.6-0.1-3.2-0.2-4.7-0.4c0,0,0,0.1,0,0.1c-3.2,0-6.5,0-9.9,0C5.7,48.2,5.6,47.6,5.6,46.9z"/>
	<path fill="#5CD8E0" d="M87.6,24.9c1.2,2.1,2.5,4.2,3.7,6.3c-0.7,0.2-1.4,0.6-2.1,0.6c-2.4,0.1-4.9,0-7.3,0c-0.7,0-1.5,0.3-2.2,0.4
		c-2.1,0.3-4.1,0.5-5.8,0.7c-3.1-1.9-4.6-4.2-4.6-7.5c3.6,0.3,7.2,0.6,10.8,0.9c1.7,0.1,3.4,0,5.6,0C86.9,26,86.9,26,87.6,24.9z"/>
	<path fill="#5BE3C8" d="M5.6,46.9c0.1,0.7,0.1,1.3,0.2,2c3.4,0,6.6,0,9.9,0c0,0,0-0.1,0-0.1c1.6,0.1,3.2,0.2,4.7,0.4
		c0.2,1.7,0.3,3.4,0.5,5.2c-0.4,1.8-1.1,2.3-2.8,2.2c-0.7-0.1-1.3-0.3-2-0.2c-2.2,0-4.4,0.2-6.6,0.2c-1.3,0-2.6-0.3-3.9-0.5
		C5.7,53,5.6,49.9,5.6,46.9z"/>
	<path fill="#5CECB7" d="M92.4,67.2c-0.9,1.9-1.8,3.8-2.7,5.6c-1.8,0-3.6,0.1-5.4-0.1c-0.5,0-0.9-0.6-1.4-1
		c-0.3-0.3-0.7-0.9-0.9-0.9c-0.9,0.2-1.9,0.5-2.8,0.8c-0.4,0.4-0.7,1-1.1,1.1c-0.8,0.2-1.7,0.1-2.6,0.1c-0.5,0.1-1.1,0.3-1.6,0.4
		c-0.3,0.2-0.7,0.4-1,0.6c-0.2,0.2-0.4,0.3-0.5,0.5c-0.2,0.2-0.4,0.3-0.5,0.5c-0.9-0.4-1.8-0.7-2.7-1.1l0,0c0.2-0.2,0.4-0.4,0.6-0.5
		l0,0c0.2-0.2,0.4-0.4,0.6-0.5l0,0c0.2-0.2,0.4-0.4,0.5-0.5l0,0c0.2-0.2,0.4-0.3,0.5-0.5l0,0c0.2-0.2,0.4-0.4,0.5-0.5l0,0
		c0.2-0.2,0.3-0.4,0.5-0.6l0,0c0.2-0.2,0.4-0.4,0.5-0.7c0.8-1.2,1.6-2.4,2.5-3.6c3.1,0.2,6.1,0.4,9.2,0.6
		C87.1,67.2,89.7,66.3,92.4,67.2z"/>
	<path fill="#5BDBDA" d="M22,39.3c-4.2,0-8.4,0-12.6-0.1c-0.9,0-2,0.4-2.2-1.1c0.8-2.3,1.7-4.5,2.5-6.8c2.5,0.2,5,0.4,7.6,0.5
		c1.5,0,3-0.3,4.5-0.4C21.9,34,21.9,36.6,22,39.3L22,39.3z"/>
	<path fill="#5CD5E5" d="M87.6,24.9c-0.7,1.1-0.7,1.1-2,1.5c-2.2,0-3.9,0.1-5.6,0c-3.6-0.2-7.2-0.6-10.8-0.9
		c-0.2-2.6-0.3-5.3-0.5-7.9c0.2,0.8,0.5,1.6,0.8,2.7c0.9,0,1.9,0,2.9,0c1.4,0,2.8,0,4.1,0.1c2.1,0,4.1,0.1,6.2,0.1
		c0.2,0,0.4-0.5,0.6-0.8C84.8,21.4,86.2,23.1,87.6,24.9z"/>
	<path fill="#5BECB7" d="M11,72.3c-0.9-1.9-1.8-3.8-2.7-5.8c0.3,0.1,0.7,0.3,1,0.2c2.1,0,4.3-0.5,6.3-0.1c3.2,0.7,6.3-0.1,9.4-0.2
		c0.2,0,0.4-0.6,0.6-1c1.6,2.1,3.1,4.3,4.7,6.4c0.2,0.1,0.3,0.3,0.5,0.4l0.1,0.1c0.2,0.2,0.3,0.3,0.5,0.5l0,0
		c0.2,0.2,0.3,0.3,0.5,0.5l0,0c-1.2,1-2.4,0.5-3.6,0c-0.8-0.3-1.6-0.6-2.5-1c-1.2-0.1-2.4-0.1-3.6-0.2c-0.2-1.1-0.3-2-0.5-3
		c-0.7,0-1.3,0-1.9,0c-0.5,0.1-0.9,0.1-1.3,0.2c-0.2,1.1-0.4,2-0.6,2.9C15.5,72.3,13.2,72.3,11,72.3z"/>
	<path fill="#5CDFD0" d="M94.4,40.2c0.4,2.8,0.7,5.6,1.1,8.4c-4.9,0.2-9.8,0.4-14.7,0.6c-0.4-2.4-0.8-4.9-1.2-7.3
		c1.9,0.2,3.7,0.4,5.6,0.5c3,0.1,6,0,9,0C94.3,41.4,94.3,40.8,94.4,40.2z"/>
	<path fill="#5CE7C1" d="M5.7,56c1.3,0.2,2.6,0.5,3.9,0.5c2.2,0,4.4-0.2,6.6-0.2c0.7,0,1.3,0.2,2,0.2c1.7,0.1,2.3-0.4,2.8-2.2
		c0.5,1.7,1.1,3.5,1.6,5.2c0.1,0.2,0.2,0.5,0.4,0.7c0.1,0.1,0.2,0.2,0.1,0.4c0.1,0.2,0.2,0.4,0.4,0.6c0.1,0.2,0.1,0.3,0.2,0.5
		c-4.7,0.2-9.4,0.4-14,0.5c-0.9,0-1.8-0.3-2.8-0.5C6.4,59.9,6.1,57.9,5.7,56z"/>
	<path fill="#5BEFB0" d="M82.9,71.8c0.5,0.3,0.9,1,1.4,1c1.8,0.1,3.6,0.1,5.4,0.1c-1.9,2.6-3.8,5.3-5.7,7.9
		c-1.2-0.2-2.4-0.4-3.6-0.6c-0.1,0-0.2-0.1-0.2-0.3c-0.2-0.2-0.3-0.4-0.5-0.6c-0.1,0.2-0.3,0.3-0.4,0.5l0,0
		c-0.2,0.2-0.4,0.3-0.6,0.5l0,0c-0.2,0.1-0.3,0.3-0.5,0.4c-0.1,0.2-0.2,0.2-0.3,0.2c-0.2,0.2-0.5,0.3-0.7,0.5l0,0
		c-0.2,0.2-0.4,0.3-0.6,0.5l0,0c-0.2,0.2-0.4,0.3-0.6,0.5l0,0c-0.3,0-0.6,0-0.9,0l0,0c-0.2-0.3-0.4-0.6-0.7-0.9l0,0
		c0-0.4,0.1-0.7,0.1-1.1l0,0c0.3-0.2,0.6-0.4,1-0.6l0,0c0.2-0.2,0.4-0.3,0.6-0.5l0,0c0.2-0.2,0.4-0.3,0.6-0.5l0,0
		c0.2-0.1,0.3-0.3,0.5-0.4c0.1-0.2,0.2-0.2,0.3-0.2c1.1-0.4,1-0.9,0.2-1.5c-1.6,0.9-3.2,1.8-4.9,2.9c-0.5-0.7-0.9-1.3-1.4-2
		c1.5-1.2,2.8-2.3,4.2-3.4c0-0.4,0-0.8,0.1-1.1c0.9,0,1.8,0.1,2.6-0.1c0.4-0.1,0.8-0.7,1.1-1.1c0.2,0.9,0.5,1.8,0.8,2.8
		c1-0.1,2-0.3,2.9-0.4C82.9,73.1,82.9,72.4,82.9,71.8z"/>
	<path fill="#5BE7C0" d="M95.3,56c-0.5,2.3-1,4.6-1.5,6.9c-0.8-0.2-1.6-0.5-2.4-0.5c-4.8-0.1-9.5,0-14.3,0c0.8-2,1.6-4,2.4-6
		c0.5,0.2,1,0.7,1.5,0.7c4.1,0.1,8.2,0.1,12.3,0C94,57,94.7,56.4,95.3,56z"/>
	<path fill="#5BE9BC" d="M6.8,61.8c0.9,0.2,1.8,0.5,2.8,0.5c4.7-0.1,9.4-0.3,14-0.5c0.7,1.2,1.3,2.4,2,3.7c-0.2,0.3-0.4,1-0.6,1
		c-3.1,0.2-6.2,0.9-9.4,0.2c-2-0.4-4.2,0.1-6.3,0.1c-0.3,0-0.7-0.2-1-0.2C7.8,64.9,7.3,63.4,6.8,61.8z"/>
	<path fill="#5CE4C6" d="M95.3,56c-0.6,0.3-1.3,1-1.9,1c-4.1,0.1-8.2,0.1-12.3,0c-0.5,0-1-0.5-1.5-0.7c0.4-1.5,0.7-3,1.1-4.5
		c0.8,0.1,1.7,0.3,2.5,0.3c3.9-0.1,7.7-0.2,11.6-0.2c0.2,0,0.5,0.4,0.8,0.6C95.4,53.7,95.4,54.8,95.3,56z"/>
	<path fill="#5CE9BC" d="M77.1,62.3c4.8,0,9.5,0,14.3,0c0.8,0,1.6,0.4,2.4,0.5c-0.4,1.2-0.8,2.4-1.2,3.6c-0.1,0.2-0.2,0.4-0.3,0.6
		l0,0c-2.6-0.8-5.3,0-7.9-0.1c-3.1-0.2-6.1-0.4-9.2-0.6c0.1-0.2,0.2-0.3,0.3-0.5c0.1-0.2,0.3-0.5,0.4-0.7
		C76.3,64.3,76.7,63.3,77.1,62.3z"/>
	<path fill="#5BDADA" d="M79.7,32.3c0.7-0.2,1.5-0.4,2.2-0.4c2.4-0.1,4.9,0,7.3,0c0.7,0,1.4-0.4,2.1-0.6c0.9,2.3,1.7,4.6,2.6,6.9
		c-0.6,0.1-1.4,0.5-1.9,0.3c-1.8-0.6-3.5-0.6-4.6,0c-1.5-0.1-2.5-0.2-3.4-0.3c-1.1-0.2-2.2-0.5-3.3-0.7c-0.1-0.7-0.3-1.5-0.4-2.2
		c0.9-0.3,1.7-0.5,2.6-0.7c-0.1-0.8-0.2-1.4-0.3-2.2C81.5,32.3,80.6,32.3,79.7,32.3z"/>
	<path fill="#5BEEB1" d="M11,72.3c2.3,0,4.5,0,6.8,0c1.1,0.2,2.1,0.5,3.4,0.8c0.1-1.3,0.2-2.2,0.3-3.1c-0.7-0.3-1.3-0.5-1.8-0.7
		c0.6,0,1.2,0,1.9,0c0.2,1,0.3,1.9,0.5,3c1.2,0.1,2.4,0.1,3.6,0.2c-1.6,1.9-3.3,3.8-4.9,5.7c-0.2,0.2-0.3,0.4-0.5,0.6l0,0
		c-1.7-0.9-3.2,0.2-4.8,0.5l0,0c-0.1-0.2-0.3-0.4-0.4-0.5C13.8,76.5,12.4,74.4,11,72.3z"/>
	<path fill="#5BDDD4" d="M80.6,37.4c1.1,0.2,2.2,0.5,3.3,0.7c0.9,0.1,1.9,0.2,3.4,0.3c1.1-0.6,2.8-0.6,4.6,0
		c0.5,0.2,1.3-0.2,1.9-0.3c0.2,0.7,0.3,1.4,0.5,2c0,0.6-0.1,1.2-0.2,2.2c-3,0-6,0.1-9,0c-1.9-0.1-3.8-0.3-5.6-0.5
		c-0.6-1.3-1.2-2.6-1.9-3.9l0-0.2l0.2,0C78.8,37.6,79.7,37.5,80.6,37.4z"/>
	<path fill="#5BD7E0" d="M21.8,31.3c-1.5,0.2-3,0.5-4.5,0.4c-2.5,0-5-0.3-7.6-0.5c1.2-2.2,2.5-4.3,3.7-6.5c0.7,0.4,1.3,1.1,2,1.2
		c2.4,0.2,4.8,0,7-1c0,0.7-0.1,1.4-0.1,2.1C22.1,28.5,22,29.9,21.8,31.3z"/>
	<path fill="#5BF3A7" d="M80.3,80.2c1.2,0.2,2.4,0.4,3.6,0.6c-2.8,3.5-6.1,6.3-10.1,8.4c-1.6-0.3-3.2-0.7-4.9-1c-0.4-1-0.8-2-1.3-3
		c-0.3-0.5-0.8-0.9-1.2-1.4c0.8-0.1,1.7-0.2,2.5-0.4c0.8-0.2,1.5-0.6,2.2-1c0.9,1,1.8,2.1,3,3.4C76.3,83.8,78.3,82,80.3,80.2z"/>
	<path fill="#5BD2EB" d="M83.4,19.7c-0.2,0.3-0.4,0.8-0.6,0.8c-2.1,0-4.1,0-6.2-0.1c-1.4,0-2.8,0-4.1-0.1c-1,0-2,0-2.9,0
		c-0.3-1.1-0.5-1.9-0.8-2.7c-0.1-0.3-0.1-0.7-0.2-1c2.6-0.2,5.1-0.4,7.7-0.5c0.9,0,1.8,0.1,1.9-1.2C79.9,16.5,81.6,18.1,83.4,19.7z"
		/>
	<path fill="#5BE0C9" d="M95.5,52.5c-0.3-0.2-0.5-0.6-0.8-0.6c-3.9,0.1-7.7,0.2-11.6,0.2c-0.8,0-1.7-0.2-2.5-0.3
		c0-0.9,0.1-1.7,0.1-2.6c4.9-0.2,9.8-0.4,14.7-0.6C95.5,49.9,95.5,51.2,95.5,52.5z"/>
	<path fill="#5BF0A8" d="M15.6,79.1c1.6-0.3,3.1-1.4,4.8-0.5c0.4,0.7,0.8,1.5,1.1,2c1.6-0.2,2.8-0.3,3.8-0.4c0.3,1.6,0.6,3,0.8,4.5
		c0.1,0.3,0.1,0.7,0.1,0.9c-1,0.3-2,0.6-3,0.9C20.8,84.1,18.2,81.6,15.6,79.1z"/>
	<path fill="#5BD4E5" d="M22.4,25c-2.2,1-4.6,1.2-7,1c-0.7-0.1-1.3-0.8-2-1.2c0-0.2,0.1-0.3,0.2-0.3c0.1-0.2,0.3-0.3,0.4-0.5l0,0
		c0.2-0.2,0.3-0.4,0.5-0.6c0,0,0,0,0,0c0.2-0.2,0.4-0.5,0.5-0.7c0.7-0.8,1.4-1.6,2.1-2.4c0.2-0.2,0.4-0.4,0.6-0.6l0,0
		c1.6,0.3,3.3,0.6,5.1,1c0.1,0.1,0.2,0.5,0.3,0.9C22.8,22.7,22.6,23.9,22.4,25z"/>
	<path fill="#5BF4A2" d="M23.3,86.5c1-0.3,2-0.6,3-0.9c0-0.3-0.1-0.6-0.1-0.9c0.5,0.2,1,0.4,1.5,0.6c0.6,0.4,1.2,0.9,1.9,1.1
		c0.9,0.2,1.9,0,2.9,0c-0.1,0.6-0.3,1.1-0.4,1.7c1.6,0.8,3.1,1.7,4.6,2.5c-0.7,0.3-1.4,0.6-2.3,0.9c0.1,0.4,0.2,0.7,0.3,1.1
		C30.4,91.4,26.7,89.3,23.3,86.5z"/>
	<path fill="#5ACFE9" d="M23.1,21.5c-0.1-0.4-0.3-0.8-0.3-0.9c-1.9-0.4-3.5-0.7-5.1-1c2.7-3.2,5.8-5.8,9.6-7.7
		c0.2,0.2,0.4,0.4,0.6,0.5c-1.1,1.6-2.3,3.2-3.2,5C23.9,18.7,23.5,20.2,23.1,21.5z"/>
	<path fill="#5CD0F0" d="M36.1,7.8C35.7,7.9,35.3,8,35,8.2C35.3,8,35.7,7.9,36.1,7.8z"/>
	<path fill="#5CD0F0" d="M69.8,9.7c-0.4-0.2-0.7-0.3-1.1-0.5C69,9.4,69.4,9.6,69.8,9.7z"/>
	<path fill="#5BF4A2" d="M36.4,93.4c0.4,0.1,0.8,0.3,1.2,0.4C37.2,93.6,36.8,93.5,36.4,93.4z"/>
	<path fill="#5BD2EB" d="M77,14c-0.3-0.2-0.6-0.5-1-0.7C76.4,13.5,76.7,13.8,77,14z"/>
	<path fill="#5BF4A2" d="M34.9,92.8c0.4,0.1,0.8,0.3,1.2,0.4C35.7,93.1,35.3,93,34.9,92.8z"/>
	<path fill="#5CD0F0" d="M33.5,8.8c-0.4,0.2-0.8,0.3-1.2,0.5C32.7,9.1,33.1,8.9,33.5,8.8z"/>
	<path fill="#5CD0F0" d="M68.7,9.2c-0.4-0.2-0.7-0.3-1.1-0.5C67.9,8.9,68.3,9.1,68.7,9.2z"/>
	<path fill="#5CD0F0" d="M34.5,8.3c-0.3,0.1-0.5,0.2-0.8,0.4C34,8.5,34.2,8.4,34.5,8.3z"/>
	<path fill="#5BF0A8" d="M15.2,78.6c0.1,0.2,0.3,0.4,0.4,0.5C15.5,78.9,15.3,78.8,15.2,78.6z"/>
	<path fill="#5ACFE9" d="M17.6,19.6c-0.2,0.2-0.4,0.4-0.6,0.6C17.3,20.1,17.4,19.9,17.6,19.6z"/>
	<path fill="#5CECB7" d="M92.3,67.2c0.1-0.2,0.2-0.4,0.3-0.6C92.6,66.7,92.5,66.9,92.3,67.2z"/>
	<path fill="#5CD0F0" d="M31.9,9.4c-0.2,0.1-0.4,0.2-0.7,0.4C31.4,9.6,31.6,9.5,31.9,9.4z"/>
	<path fill="#5CD0F0" d="M30.8,9.9c-0.2,0.1-0.5,0.3-0.7,0.4C30.4,10.1,30.6,10,30.8,9.9z"/>
	<path fill="#5BD2EB" d="M77.6,14.5c-0.2-0.2-0.4-0.3-0.6-0.5C77.2,14.2,77.4,14.3,77.6,14.5z"/>
	<path fill="#5BD2EB" d="M78.2,15c-0.2-0.2-0.4-0.3-0.6-0.5C77.8,14.6,78,14.8,78.2,15z"/>
	<path fill="#5BD7E0" d="M14,24c-0.1,0.2-0.3,0.3-0.4,0.5C13.8,24.3,13.9,24.1,14,24z"/>
	<path fill="#5BD7E0" d="M14.5,23.4c-0.2,0.2-0.3,0.4-0.5,0.6C14.2,23.8,14.4,23.6,14.5,23.4z"/>
	<path fill="#5BD7E0" d="M15,22.7c-0.2,0.2-0.4,0.5-0.5,0.7C14.7,23.2,14.8,22.9,15,22.7z"/>
	<path d="M23.1,21.5c0.5-1.4,0.8-2.9,1.5-4.1c0.9-1.7,2.1-3.3,3.2-5c2.4-1.1,4.6-0.6,6.5,1c1.7,1.3,3.2,2.9,4.8,4.3
		c1.2,1.8,3,2.9,5,3c3.7,0.2,7.5,0.1,11.2,0.1c0.9-1,1.9-2.1,2.8-3.1c1.1-0.8,2.1-1.7,3.3-2.5c3-2,5.1-1.6,7.1,1.4
		c0.1,0.3,0.1,0.7,0.2,1c0.2,2.6,0.3,5.3,0.5,7.9c0,3.2,1.5,5.6,4.6,7.5c1.7-0.2,3.7-0.5,5.8-0.7c0.9,0,1.8,0,2.9,0
		c0.1,0.8,0.2,1.4,0.3,2.2c-0.9,0.2-1.7,0.5-2.6,0.7c0.1,0.7,0.3,1.5,0.4,2.2c-0.9,0.1-1.8,0.2-2.7,0.3c-0.1-0.7-0.2-1.5-0.2-2.4
		c-1,0.1-1.8,0.2-2.8,0.4c0.3,1,0.5,1.7,0.7,2.5c-0.9,0.1-1.7,0.2-2.7,0.3c0.1,0.9,0.1,1.6,0.2,2.6c0.9-0.1,1.7-0.2,2.4-0.3
		c0.2,0.8,0.4,1.7,0.6,2.6c-1.6,0.3-2.9,0.5-4.1,0.7c-1.5,0.1-3,0.2-4.6,0.3c-0.2-0.9-0.3-1.7-0.5-2.5C66,42,65.3,42,64.5,42
		c-0.2-0.5-0.4-0.9-0.6-1.3c-0.2-0.3-0.4-0.7-0.6-1c-0.2-0.1-0.3-0.1-0.5,0c-0.4-0.1-0.9-0.1-1.4-0.2c-0.2-0.7-0.3-1.5-0.5-2.3
		c-1.7,0.2-3.3,0.4-4.6,0.5c-0.4,1.2-0.7,2.1-1,2.9c-0.7,0-1.3,0.1-2,0.1c0-0.8,0-1.7,0-2.7c-1.1,0.2-1.8,0.3-2.6,0.5
		c0.1,0.5,0.1,0.8,0.1,1.2c0,0.4-0.1,0.8-0.1,1.3c-0.8,0.2-1.5,0.3-2.4,0.5c0.2,0.9,0.4,1.7,0.5,2.4c1,0,1.8,0,2.5,0
		c0,0.7,0.1,1.5,0.1,2.3c-1.7,0.3-3.3,0.6-4.8,0.9c-1.1,0-2.2,0-3.5,0c-0.2-0.7-0.4-1.4-0.7-2.1c-0.8,0-1.6-0.1-2.3-0.1
		c-0.2-0.9-0.4-1.6-0.5-2.3c-0.9,0-1.6,0.1-2.3,0.1c-0.3-0.9-0.5-1.6-0.7-2.3c-2.9,0.1-5.5,0.3-8.2,0.4c0.2-0.8,0.4-1.7,0.6-2.5
		c0.8,0,1.6,0,2.3-0.1c7.9-0.9,15.9-1.8,23.8-2.8c3.2-0.4,6.3-0.9,9.5-1.3c2-0.2,4-0.4,6.1-0.6c-1-1.3-1.8-2.3-2.6-3.3
		c-0.3-1.2-0.7-2.4-1-3.6c-0.1-1-0.1-2.1-0.2-3.1c-0.1-1.8-0.2-3.6-0.3-5.5c-0.7-2-1.6-2.6-3.3-1.6c-1.7,1.1-3.1,2.6-4.7,3.9
		c-0.9,0.9-1.7,1.8-2.6,2.7c-0.9,0-1.9-0.1-2.8-0.1c-2.3-0.1-4.7-0.2-7-0.3c-1.3,0-2.5,0-3.8-0.1c-0.1-0.1-0.2-0.2-0.3-0.1
		c-0.2-0.1-0.5-0.2-0.7-0.3c-0.1-0.1-0.3-0.2-0.4-0.1c-0.2-0.1-0.4-0.3-0.6-0.4c-0.9-0.6-1.7-1.3-2.6-1.9c-0.7-0.8-1.5-1.6-2.2-2.4
		c-0.7-0.7-1.4-1.5-2.3-2.1c-2.8-2.2-4.4-1.7-6.1,1.5c-0.2,0.4-0.4,0.7-0.5,1.1c0,0,0,0,0,0c-0.1,0.4-0.3,0.7-0.4,1.1
		C26,18.8,26,19,26,19.2l0,0c-0.1,0.4-0.3,0.7-0.4,1.1c-0.1,0.1-0.2,0.3-0.1,0.5c-0.2,0.8-0.4,1.7-0.6,2.5c-0.1,0.4-0.2,0.8-0.3,1.2
		c0,0.4-0.1,0.7-0.1,1.1c-0.1,0.7-0.1,1.3-0.2,2c0.1,3.4,0.1,6.8,0.2,10.1c-0.3,1-0.5,2.1-0.8,3.1c-1.7,4.7-2,9.5-0.4,14.4
		c0.5,3.1,1.7,5.9,3.6,8.3c0.1,0.3,0.2,0.7,0.3,1c6.8,13,22.5,18,35.5,11.1c6.1-3.2,10.5-8,12.5-14.8c0.7-1.7,1.5-3.3,2.1-5
		c1.8-5.1,1.6-10-0.7-14.9c-0.6,0-1,0-1.5,0c0-0.9,0.1-1.8,0.1-2.7c0.7-0.1,1.5-0.1,2.2-0.2c0.6,1.3,1.2,2.6,1.9,3.9
		c0.4,2.4,0.8,4.9,1.2,7.3c0,0.9-0.1,1.7-0.1,2.6c-0.4,1.5-0.7,3-1.1,4.5c-0.8,2-1.6,4-2.4,6c-0.4,1-0.8,2-1.2,3
		c-0.1,0.2-0.3,0.5-0.4,0.7c-0.1,0.2-0.2,0.3-0.3,0.5c-0.8,1.2-1.6,2.4-2.5,3.6c-0.2,0.2-0.4,0.4-0.5,0.7l0,0
		c-0.2,0.2-0.3,0.4-0.5,0.6l0,0c-0.2,0.2-0.4,0.4-0.5,0.5l0,0c-0.2,0.2-0.4,0.3-0.5,0.5l0,0c-0.2,0.2-0.4,0.4-0.5,0.5l0,0
		c-0.2,0.2-0.4,0.4-0.6,0.5l0,0c-0.2,0.2-0.4,0.4-0.6,0.5c0,0,0,0,0,0c-1.8,1.2-3.6,2.4-5.4,3.7c-3.2,1.2-6.5,2.5-10,2.8
		c-5.1,0.4-10.1-0.4-14.8-2.2c-2.3-1.5-4.7-3.1-7-4.6l0,0c-0.2-0.2-0.3-0.3-0.5-0.5c0,0,0,0,0,0c-0.2-0.2-0.3-0.3-0.5-0.5l-0.1-0.1
		c-0.2-0.1-0.3-0.3-0.5-0.4c-1.6-2.1-3.1-4.3-4.7-6.4c-0.7-1.2-1.3-2.4-2-3.7c-0.1-0.2-0.1-0.3-0.2-0.5c-0.1-0.2-0.2-0.4-0.4-0.6
		c0-0.2,0-0.3-0.1-0.4c-0.1-0.2-0.2-0.5-0.4-0.7c-0.5-1.7-1.1-3.5-1.6-5.2c-0.2-1.7-0.3-3.4-0.5-5.2c0.5-3.3,1.1-6.6,1.6-9.9l0,0
		c0.2-0.7,0.5-1.5,0.5-2.2c0-3.3-0.1-6.6-0.2-9.9c0-0.7,0.1-1.4,0.1-2.1C22.6,23.9,22.8,22.7,23.1,21.5z"/>
	<path fill="#5BD1E9" d="M58.1,17.7c-0.9,1-1.9,2.1-2.8,3.1c-3.8,0-7.5,0.2-11.2-0.1c-2-0.1-3.8-1.2-5-3c2.7-0.2,5.5-0.6,8.2-0.6
		c2.6,0,5.2,0.7,7.8,0.1C56,17,57.1,17.5,58.1,17.7z"/>
	<path fill="#5BF1A9" d="M38.8,78c4.8,1.9,9.7,2.7,14.8,2.2c3.5-0.3,6.8-1.5,10-2.8c1.5,0.4,3.1,0.7,4.6,1.1
		c0.3,0.4,0.6,0.8,0.9,1.1c0.1,0.2,0.3,0.3,0.4,0.5l0.1,0.1c0.2,0.3,0.5,0.6,0.7,0.9c0.1,0.2,0.3,0.3,0.4,0.5
		c0.2,0.2,0.3,0.4,0.5,0.6l0,0c-0.7,0.3-1.4,0.8-2.2,1c-0.8,0.2-1.7,0.3-2.5,0.4c-1.1,0.5-2.1,0.9-3.7,1.6c1.2,0.5,1.7,0.7,2.4,1
		c0.2,0.6,0.4,1.2,0.7,2c-0.7,0.3-1.4,0.6-1.8,0.7c-1-0.4-1.8-0.8-2.7-1.1c-0.4-1-0.7-2.1-1-2.8c0.5-1,0.9-1.7,1.3-2.4
		c1.4-0.5,2.9-1.1,4.4-1.7c-0.1-0.4-0.1-0.7-0.3-1.3c-2.1,0.8-4.1,1.5-6.1,2.2c0.1,0.1,0.2,0.2,0.3,0.3c-0.8,1.1-1.5,2.2-2.3,3.3
		c-0.1,0.1-0.3,0.1-0.4,0.2c0.1,0.1,0.2,0.2,0.3,0.3l0,0c0.1,1.2-0.5,1.9-1.8,2c-0.3-1-0.5-2-0.8-3c-0.7-0.5-1.5-1-2.3-1.6
		c-1.4,0-3,0-4.5,0c-0.8,0-1.6,0.1-1.8,1.1c-0.4,0.1-0.8,0.1-1.3,0.2c-0.1,1.1-0.1,2.2-0.2,3.2c-0.2,0.1-0.3,0.2-0.5,0.3
		c-0.3-0.5-0.7-1.1-1-1.6l0,0c0.1-0.1,0.2-0.2,0.4-0.3c-0.1-0.1-0.3-0.1-0.4-0.2c-0.7-1.3-1.3-2.5-2-3.9c-1.4-0.7-3-1.6-4.7-2.4
		c-0.2-0.2-0.3-0.4-0.5-0.6c-0.2,0.2-0.3,0.4-0.5,0.6l0,0c-0.2,0.2-0.4,0.3-0.6,0.5c0,0.2,0,0.4,0,0.5c-0.1,0.2-0.1,0.4-0.2,0.5
		c-0.1,0.2-0.2,0.4-0.3,0.6c0,0.2,0,0.3-0.1,0.5c-0.1,0.2-0.2,0.4-0.4,0.6c0,0.2,0,0.3-0.1,0.4c-0.1,0.2-0.3,0.4-0.4,0.6
		c0,0.2,0,0.3-0.1,0.4c-0.1,0.2-0.2,0.4-0.4,0.7c0,0.2,0,0.3-0.1,0.4c-0.1,0.2-0.3,0.5-0.4,0.7c0.1,0.1,0,0.2-0.1,0.3
		c-1,0-1.9,0.1-2.9,0c-0.7-0.1-1.3-0.7-1.9-1.1l0,0c0.2-0.2,0.4-0.4,0.6-0.6c0,0,0,0,0,0c0.2-0.2,0.4-0.4,0.5-0.6c0,0,0,0.1,0,0.1
		c0.2-0.2,0.4-0.5,0.5-0.7c0-0.2,0.1-0.3,0.2-0.3c0.1-0.1,0.3-0.3,0.4-0.4c0,0,0.1-0.1,0.1-0.1c0.2-0.2,0.3-0.3,0.5-0.5l0,0
		c0.2-0.2,0.3-0.4,0.5-0.6c0,0,0,0,0,0c0.2-0.2,0.3-0.4,0.5-0.6c0,0,0,0,0,0c0.2-0.2,0.4-0.4,0.5-0.6c0,0,0,0,0,0
		c0.2-0.2,0.4-0.4,0.5-0.6c0,0,0,0.1,0,0.1c0.2-0.2,0.4-0.5,0.6-0.7c0-0.2,0.1-0.3,0.2-0.3c0.1-0.2,0.3-0.3,0.4-0.5l0,0
		C35.3,78.4,37.1,78.2,38.8,78z"/>
	<path fill="#020403" d="M33.9,83.3c0.1-0.1,0.2-0.3,0.1-0.4c0.1-0.2,0.2-0.4,0.4-0.6c0.1-0.1,0.2-0.3,0.1-0.5
		c0.1-0.2,0.2-0.4,0.3-0.6c0.1-0.2,0.1-0.4,0.2-0.5c0.1-0.2,0.2-0.4,0.4-0.5c0.1-0.2,0.1-0.3,0.2-0.5l0,0c0.2,0,0.3-0.1,0.5-0.1
		c0.2,0,0.3,0.1,0.5,0.1c1.6,0.8,3.2,1.7,4.7,2.4c0.7,1.4,1.4,2.7,2,3.9c0,0.2,0,0.3,0.1,0.4l0,0c-0.5,1-1.1,1.9-1.4,2.5
		c-1.6,0.8-2.9,1.5-4.2,2.2c-0.4-0.2-0.8-0.3-1.2-0.5l0,0c-1.5-0.8-3.1-1.6-4.6-2.5c0.1-0.6,0.3-1.2,0.4-1.7
		c0.1-0.1,0.2-0.2,0.1-0.3c0.1-0.2,0.3-0.5,0.4-0.7C33,85.3,33,85.2,33,85c0.1-0.2,0.2-0.4,0.4-0.7c0.1-0.1,0.2-0.3,0.1-0.4
		C33.6,83.8,33.7,83.5,33.9,83.3z M37.7,81.9c-1,2.1-1.9,4-2.9,6.2c0.9,0.4,1.5,0.7,1.9,0.9c1.1-0.4,1.8-0.6,2.7-0.9
		c0.4-0.9,0.8-1.9,1.2-2.7c-0.3-0.9-0.6-1.5-1-2.6C39.3,82.7,38.7,82.3,37.7,81.9z"/>
	<path fill="#010302" d="M46.4,84.4c0.2-1,0.9-1.1,1.8-1.1c1.6,0,3.1,0,4.5,0c0.8,0.6,1.6,1.1,2.3,1.6c0,2.1,0,4.2,0,6.2
		c-0.7,0.6-1.4,1.2-2.1,1.8c-1.8,0-3.7,0-5.6,0c-0.6-0.6-1.2-1.1-1.9-1.8c0-1.6-0.1-3.2,0-4.9C45.5,85.6,46.1,85,46.4,84.4z
		 M52.2,84.8c-1.4,0-2.6,0-3.8,0c0,2.3,0,4.5,0,6.6c1.4,0,2.6,0,3.8,0C52.2,89.2,52.2,87.2,52.2,84.8z"/>
	<path fill="#020604" d="M57.7,85.5c0.8-1.1,1.5-2.2,2.3-3.3c-0.1-0.1-0.2-0.2-0.3-0.3c2-0.7,4-1.5,6.1-2.2c0.1,0.6,0.2,0.9,0.3,1.3
		c-1.5,0.6-3,1.1-4.4,1.7c-0.4,0.7-0.7,1.4-1.3,2.4c0.3,0.8,0.6,1.8,1,2.8c0.9,0.4,1.7,0.7,2.7,1.1c0.4-0.2,1.1-0.4,1.8-0.7
		c-0.3-0.7-0.5-1.4-0.7-2c-0.6-0.3-1.2-0.5-2.4-1c1.6-0.7,2.6-1.2,3.7-1.6c0.4,0.5,0.9,0.9,1.2,1.4c0.5,1,0.8,2,1.3,3
		c-1,0.6-1.9,1.2-3,1.7c-1,0.5-2.1,0.8-3,1.1c-1.5-0.7-2.7-1.4-4.1-2.1c-0.4-0.9-0.8-1.9-1.3-2.9l0,0C57.7,85.8,57.7,85.6,57.7,85.5
		z"/>
	<path fill="#5BF4A2" d="M36.6,90.7c0.4,0.2,0.8,0.3,1.2,0.5C37.4,91,37,90.8,36.6,90.7z"/>
	<path fill="#5AEBAF" d="M68.2,78.5c-1.5-0.4-3.1-0.7-4.6-1.1c1.8-1.2,3.6-2.4,5.4-3.7c0.9,0.4,1.8,0.7,2.7,1.1l0.1,0.1
		c-0.7,0.6-1.4,1.1-2.1,1.8C69.2,77.3,68.7,77.9,68.2,78.5z"/>
	<path fill="#08140E" d="M82.9,71.8c0,0.7,0,1.4,0,2.4C82,74.2,81,74.4,80,74.5c-0.3-1-0.5-1.9-0.8-2.8c0.9-0.3,1.8-0.7,2.8-0.8
		C82.2,70.8,82.6,71.4,82.9,71.8z"/>
	<path fill="#5AEBAF" d="M75.5,72.8c0,0.4,0,0.8-0.1,1.1c-0.5-0.2-1-0.4-1.5-0.6l-0.1-0.1C74.4,73.1,74.9,73,75.5,72.8z"/>
	<path fill="#5AEBAF" d="M72.8,73.9c0.3-0.2,0.7-0.4,1-0.6l0.1,0.1c-0.3,0.2-0.6,0.5-0.9,0.7L72.8,73.9z"/>
	<path fill="#5AEBAF" d="M69.1,73.8c0.2-0.2,0.4-0.4,0.6-0.5C69.5,73.5,69.3,73.6,69.1,73.8z"/>
	<path fill="#5AEBAF" d="M69.6,73.3c0.2-0.2,0.4-0.4,0.6-0.5C70,73,69.8,73.1,69.6,73.3z"/>
	<path fill="#5AEBAF" d="M72.3,74.4c0.2-0.2,0.4-0.3,0.5-0.5L73,74c-0.2,0.1-0.4,0.3-0.6,0.4L72.3,74.4z"/>
	<path fill="#5AEBAF" d="M71.7,74.9c0.2-0.2,0.4-0.3,0.5-0.5l0.1,0.1C72.2,74.6,72,74.8,71.7,74.9L71.7,74.9z"/>
	<path fill="#5AEBAF" d="M70.2,72.8c0.2-0.2,0.4-0.4,0.5-0.5C70.5,72.4,70.4,72.6,70.2,72.8z"/>
	<path fill="#5AEBAF" d="M70.7,72.3c0.2-0.2,0.4-0.3,0.5-0.5C71.1,71.9,70.9,72.1,70.7,72.3z"/>
	<path fill="#5AEBAF" d="M71.2,71.8c0.2-0.2,0.4-0.4,0.5-0.5C71.6,71.4,71.4,71.6,71.2,71.8z"/>
	<path fill="#5AEBAF" d="M72.2,70.7c0.2-0.2,0.4-0.4,0.5-0.7C72.6,70.2,72.4,70.5,72.2,70.7z"/>
	<path fill="#5AEBAF" d="M71.8,71.2c0.2-0.2,0.3-0.4,0.5-0.6C72.1,70.8,71.9,71,71.8,71.2z"/>
	<path fill="#5CDFD1" d="M22.3,27.2c0.1,3.3,0.2,6.6,0.2,9.9c0,0.7-0.3,1.5-0.5,2.2c0-2.7-0.1-5.3-0.1-8
		C22,29.9,22.1,28.5,22.3,27.2z"/>
	<path fill="#010302" d="M33.1,79.1c-0.2,0-0.2,0.1-0.2,0.3c-0.2,0.2-0.4,0.5-0.6,0.7c0,0,0-0.1,0-0.1c-0.2,0.2-0.4,0.4-0.5,0.6
		c0,0,0,0,0,0c-0.2,0.2-0.4,0.4-0.5,0.6c0,0,0,0,0,0c-0.2,0.2-0.3,0.4-0.5,0.6c0,0,0,0,0,0c-0.2,0.2-0.3,0.4-0.5,0.6l0,0
		c-0.2,0.2-0.3,0.3-0.5,0.5c0,0-0.1,0.1-0.1,0.1c-0.1,0.1-0.3,0.3-0.4,0.4c-0.2,0-0.2,0.1-0.2,0.3c-0.2,0.2-0.4,0.5-0.5,0.7
		c0,0,0-0.1,0-0.1c-0.2,0.2-0.4,0.4-0.5,0.6c0,0,0,0,0,0c-0.2,0.2-0.4,0.4-0.6,0.6c0,0,0,0,0,0c-0.5-0.2-1-0.4-1.5-0.6
		c-0.3-1.5-0.6-2.9-0.8-4.5c-1.1,0.1-2.2,0.2-3.8,0.4c-0.3-0.5-0.7-1.3-1.1-2l0,0c0.2-0.2,0.3-0.4,0.5-0.6c1.6-1.9,3.3-3.8,4.9-5.7
		c0.8,0.3,1.6,0.6,2.5,1c-1.1,1.6-2.1,3.2-3.4,5.1c1.1-0.1,1.8-0.2,2.7-0.3c0,0.7,0,1.4,0,2.4c1.5-1.5,2.8-2.8,4.2-4.2
		c0.8,1,1.3,1.6,1.8,2.3c0,0,0,0,0,0C33.3,78.8,33.2,78.9,33.1,79.1z"/>
	<path fill="#5AEDAE" d="M33.5,78.6c-0.5-0.7-1-1.3-1.8-2.3c-1.4,1.4-2.7,2.7-4.2,4.2c0-1,0-1.6,0-2.4c-0.9,0.1-1.5,0.2-2.7,0.3
		c1.3-2,2.4-3.5,3.4-5.1c1.2,0.6,2.4,1,3.6,0c2.3,1.5,4.7,3.1,7,4.6C37.1,78.2,35.3,78.4,33.5,78.6z"/>
	<path fill="#07140E" d="M19.7,69.2c0.5,0.2,1.1,0.5,1.8,0.7c-0.1,0.9-0.2,1.8-0.3,3.1c-1.3-0.3-2.3-0.5-3.4-0.8
		c0.2-0.9,0.4-1.8,0.6-2.9C18.8,69.3,19.2,69.2,19.7,69.2z"/>
	<path fill="#5AEDAE" d="M31.3,72.9c0.2,0.2,0.3,0.3,0.5,0.5C31.7,73.2,31.5,73,31.3,72.9z"/>
	<path fill="#5AEDAE" d="M30.8,72.4c0.2,0.2,0.3,0.3,0.5,0.5C31.1,72.7,31,72.5,30.8,72.4z"/>
	<path fill="#5AEDAE" d="M30.3,71.9c0.2,0.1,0.3,0.3,0.5,0.4C30.6,72.2,30.4,72,30.3,71.9z"/>
	<path fill="#5BE9BC" d="M23,60.6c0.1,0.2,0.2,0.4,0.4,0.6C23.2,61,23.1,60.8,23,60.6z"/>
	<path fill="#5BE9BC" d="M22.5,59.5c0.1,0.2,0.2,0.5,0.4,0.7C22.7,60,22.6,59.7,22.5,59.5z"/>
	<path fill="#020604" d="M71.8,74.9c0.2-0.2,0.4-0.3,0.6-0.5c0.2-0.1,0.4-0.3,0.6-0.4c0.3-0.2,0.6-0.5,0.9-0.7
		c0.5,0.2,1,0.4,1.5,0.6c-1.3,1.1-2.6,2.2-4.2,3.4c0.5,0.7,0.9,1.3,1.4,2c1.8-1,3.3-2,4.9-2.9c-0.1,0.5-0.1,1-0.2,1.5
		c-0.2,0-0.3,0.1-0.3,0.2c-0.2,0.1-0.3,0.3-0.5,0.4l0,0c-0.2,0.2-0.4,0.3-0.6,0.5l0,0c-0.2,0.2-0.4,0.3-0.6,0.5l0,0
		c-0.3,0.2-0.6,0.4-1,0.6c0,0,0,0,0,0c0,0.4-0.1,0.7-0.1,1.1l0,0c0.2,0.3,0.4,0.6,0.7,0.9l0,0c0.3,0,0.6,0,0.9,0l0,0
		c0.2-0.2,0.4-0.3,0.6-0.5l0,0c0.2-0.2,0.4-0.3,0.6-0.5l0,0c0.2-0.2,0.5-0.3,0.7-0.5c0.2,0,0.3-0.1,0.3-0.2c0.2-0.1,0.3-0.3,0.5-0.4
		l0,0c0.2-0.2,0.4-0.3,0.6-0.5l0,0c0.3,0,0.6,0.1,0.9,0.1c0,0.2,0,0.3,0.2,0.3c-2,1.8-4,3.7-6.1,5.6c-1.2-1.3-2.1-2.4-3-3.4l0,0
		c-0.2-0.2-0.3-0.4-0.5-0.6c-0.1-0.2-0.3-0.3-0.4-0.5c-0.2-0.3-0.5-0.6-0.7-0.9l-0.1-0.1c-0.1-0.2-0.3-0.3-0.4-0.5
		c-0.3-0.4-0.6-0.8-0.9-1.1c0.5-0.6,0.9-1.3,1.5-1.8C70.4,76.1,71.1,75.5,71.8,74.9z"/>
	<path fill="#57E6A4" d="M77.3,78c0.1-0.5,0.1-1,0.2-1.5C78.4,77.1,78.5,77.6,77.3,78z"/>
	<path fill="#57E6A4" d="M75.9,82.2c-0.3,0-0.6,0-0.9,0C75.3,82.2,75.6,82.2,75.9,82.2z"/>
	<path fill="#57E6A4" d="M74.3,81.3c0-0.4,0.1-0.7,0.1-1.1C74.4,80.6,74.4,80.9,74.3,81.3z"/>
	<path fill="#57E6A4" d="M75,82.2c-0.2-0.3-0.4-0.6-0.7-0.9C74.5,81.6,74.7,81.9,75,82.2z"/>
	<path fill="#57E6A4" d="M74.5,80.2c0.3-0.2,0.6-0.4,1-0.6C75.1,79.8,74.8,80,74.5,80.2z"/>
	<path fill="#57E6A4" d="M80.1,79.9c-0.3,0-0.6-0.1-0.9-0.1c0.1-0.2,0.3-0.3,0.4-0.5C79.8,79.4,79.9,79.6,80.1,79.9z"/>
	<path fill="#57E6A4" d="M76.5,78.6c0.2-0.1,0.3-0.3,0.5-0.4C76.9,78.3,76.7,78.5,76.5,78.6z"/>
	<path fill="#57E6A4" d="M75.9,79.1c0.2-0.2,0.4-0.3,0.6-0.5C76.3,78.8,76.1,78.9,75.9,79.1z"/>
	<path fill="#57E6A4" d="M75.4,79.6c0.2-0.2,0.4-0.3,0.6-0.5C75.8,79.3,75.6,79.4,75.4,79.6z"/>
	<path fill="#57E6A4" d="M79.2,79.7c-0.2,0.2-0.4,0.3-0.6,0.5C78.8,80,79,79.8,79.2,79.7z"/>
	<path fill="#57E6A4" d="M78.6,80.2c-0.2,0.1-0.3,0.3-0.5,0.4C78.2,80.4,78.4,80.3,78.6,80.2z"/>
	<path fill="#57E6A4" d="M77.8,80.8c-0.2,0.2-0.5,0.3-0.7,0.5C77.3,81.1,77.5,80.9,77.8,80.8z"/>
	<path fill="#57E6A4" d="M77.1,81.3c-0.2,0.2-0.4,0.3-0.6,0.5C76.7,81.6,76.9,81.4,77.1,81.3z"/>
	<path fill="#57E6A4" d="M76.5,81.7c-0.2,0.2-0.4,0.3-0.6,0.5C76.1,82.1,76.3,81.9,76.5,81.7z"/>
	<path fill="#5CECB7" d="M75.5,66c0.1-0.2,0.3-0.5,0.4-0.7C75.8,65.5,75.6,65.7,75.5,66z"/>
	<path fill="#5BF0A8" d="M20.8,78.1c-0.2,0.2-0.3,0.4-0.5,0.6C20.5,78.4,20.7,78.3,20.8,78.1z"/>
	<path fill="#D4D4D4" d="M75.5,38.2c-0.2-0.7-0.4-1.5-0.7-2.5c1-0.1,1.8-0.2,2.8-0.4c0.1,0.9,0.2,1.7,0.2,2.4l-0.2,0l0,0.2
		C76.9,38,76.2,38.1,75.5,38.2L75.5,38.2z"/>
	<path fill="#FEFEFE" d="M75.3,40.8c0.4,0,0.9,0,1.5,0c2.4,4.8,2.5,9.8,0.7,14.9c-0.6,1.7-1.4,3.4-2.1,5c-0.9,0.1-1.8,0.1-2.6,0.3
		c-0.2,0-0.3,0.4-0.5,0.7c-0.1,0.2-0.3,0.4-0.4,0.7c-0.2,0.5-0.4,1-0.7,1.5c-3.1,3-6.7,3.9-10.8,2.6c-0.3-0.1-0.6-0.3-1.2-0.6
		c0,0.6,0,0.9,0,1.2c-0.3,0.5-0.4,1.2-0.8,1.6c-3.4,3.4-7.7,4.5-12.2,4.1c-5.6-0.5-10.6-3.1-15-6.6c-1.3-1-2.7-1.8-4.1-2.7
		c-1.9-2.4-3.2-5.2-3.6-8.3c0.4-1.4,0.7-2.9,1.2-4.3c1.6-4.6,6.2-7.2,11-6c2.5,0.6,4.8,1.9,7.2,2.8c3.2,3.4,7,4,11.2,2.1
		c1.2-0.6,2.5-1.3,3.5-2.2c2.3-1.8,4.8-2.9,7.7-2.7c1.3,0.1,2.6,0.4,3.9,0.5c1.3,0.2,2.5,0.3,2.8-1.4c1.3-0.2,2.5-0.4,4.1-0.7
		C75.8,42.5,75.6,41.6,75.3,40.8L75.3,40.8z M66.6,46.2c-1.5,0.5-3.2,0.8-4.6,1.6c-1.8,1-2.3,2.8-1,4.4c1.1,1.4,2.6,2.6,4.1,3.4
		c2.1,1.2,3.7,0.7,5.3-1.3c1.2-1.6,2.6-3.4,1.7-5.4C71.1,46.7,68.8,46.5,66.6,46.2z M54.6,59.1c1.7,3.5,4.6,4.6,8.4,4.2
		c0.9-0.1,1.9,0,2.8,0c1.9,0.1,3.4-0.7,4.7-2c0.8-0.8,1.7-1.7,2.7-2.3c3.3-2.1,4-6.2,1.5-9c-0.4,0.2-0.8,0.4-1.2,0.7
		c0.1,0.4,0.2,0.7,0.3,0.9c1.3,3.2-0.1,5.8-3.5,6.3c-1.5,0.2-2.6,0.8-3.7,1.7c-3.6,2.9-7.7,2.3-10.3-1.4c-0.7-0.9-1.8-1.5-2.9-2.1
		c-0.3-0.2-0.9,0.3-2,0.6C52.6,57.7,53.5,58.3,54.6,59.1z"/>
	<path fill="#F7EBDE" d="M72.3,61.7c0.2-0.2,0.3-0.6,0.5-0.7c0.9-0.2,1.8-0.2,2.6-0.3c-2,6.7-6.4,11.6-12.5,14.8
		c-13,6.8-28.7,1.8-35.5-11.1c-0.2-0.3-0.2-0.6-0.3-1c1.4,0.9,2.8,1.7,4.1,2.7c4.5,3.5,9.4,6.1,15,6.6c4.5,0.4,8.8-0.7,12.2-4.1
		c0.4-0.4,0.5-1,0.8-1.6c0.2,0,0.3,0.1,0.5,0.1c0.8,0.5,1.6,1.1,2.4,1.4c4.1,1.3,9-0.7,9.7-3.9c0.2-0.4,0.4-0.8,0.6-1.1
		C72.3,62.8,72.3,62.3,72.3,61.7z"/>
	<path fill="#FDA625" d="M71.9,44.1c-0.4,1.7-1.6,1.6-2.8,1.4c-1.3-0.2-2.6-0.4-3.9-0.5c-2.9-0.2-5.4,0.9-7.7,2.7
		c-1.1,0.8-2.3,1.6-3.5,2.2c-4.2,1.9-7.9,1.3-11.2-2.1c1.3-0.2,2.5-0.4,3.8-0.6c1.6-0.3,3.1-0.6,4.8-0.9c0-0.8-0.1-1.6-0.1-2.3l0,0
		c0.9-0.3,1.8-0.5,2.8-0.8c-0.2-0.9-0.4-1.7-0.6-2.4l0,0.1c0.7,0,1.3-0.1,2-0.1c2.9,0,5.7,0,8.6,0c0.2,0.4,0.4,0.8,0.6,1.3
		c0.7,0,1.5-0.1,2.3-0.1c0.2,0.8,0.3,1.5,0.5,2.5C68.9,44.3,70.4,44.2,71.9,44.1z"/>
	<path fill="#FCBA3A" d="M24.6,37.6c-0.1-3.4-0.1-6.8-0.2-10.1c0.1,0.2,0.1,0.5,0.2,0.7c0,0.9,0,1.7,0,2.6c0,1,0,2,0,3.2
		C32,34,39,34,46,34c1.9,1,3.9,0.5,5.8,0c4.3,0,8.5,0,12.8,0.1c-3.2,0.5-6.3,1-9.5,1.3c-7.9,1-15.9,1.9-23.8,2.8
		c-0.8,0.1-1.6,0.1-2.3,0.1C27.5,38.1,25.8,39.6,24.6,37.6z"/>
	<path fill="#FBD656" d="M42.4,22.4c1.3,0,2.5,0,3.8,0.1c2.3,0.1,4.7,0.2,7,0.3c0.9,0,1.9,0.1,2.8,0.1c0.7,0.2,1.4,0.5,2.1,0.5
		c2.9,0.1,5.9,0,8.8,0c0.1,1,0.1,2.1,0.2,3.1c-0.3,0-0.5,0.1-0.8,0c-4.6-0.7-9.3-0.7-13.9,0c-0.4,0.1-0.9-0.1-1.3-0.1
		c-2.6-0.1-5.2-0.2-7.9-0.4c0,0.1,0,0.2,0,0.3c-2.7-0.1-5.4-0.2-8.1-0.4c-0.6-0.7-1.2-1.4-1.7-2.1c1-0.2,2-0.5,3-0.5
		c2-0.1,4.1,0,6.2,0C42.5,22.9,42.5,22.7,42.4,22.4z"/>
	<path fill="#FDA625" d="M46.6,47.1c-1.3,0.2-2.5,0.4-3.8,0.6c-2.4-1-4.7-2.2-7.2-2.8c-4.8-1.2-9.3,1.4-11,6
		c-0.5,1.4-0.8,2.8-1.2,4.3c-1.6-4.8-1.3-9.6,0.4-14.4c1.5,0,3,0,4.5,0c2.7-0.1,5.3-0.3,8.2-0.4c0.2,0.7,0.4,1.4,0.7,2.3
		c0.7,0,1.4-0.1,2.3-0.1c0.2,0.7,0.3,1.4,0.5,2.3c0.8,0,1.5,0.1,2.3,0.1c0.2,0.7,0.5,1.5,0.7,2.1C44.3,47.1,45.5,47.1,46.6,47.1z"/>
	<path fill="#FCCF4F" d="M35.2,26.1c2.7,0.1,5.4,0.2,8.1,0.4c0-0.1,0-0.2,0-0.3c2.6,0.1,5.2,0.2,7.9,0.4c0.4,0,0.9,0.1,1.3,0.1
		c4.6-0.7,9.3-0.7,13.9,0c0.3,0,0.5,0,0.8,0c0.3,1.2,0.7,2.4,1,3.6c-0.6,0.3-1.1,0.6-1.9,1c-0.2,0.3-0.5,0.8-0.8,1.2
		c0.2-1.3-0.1-2.4-1.6-3.1c-0.5,0-1.3,0-2.1,0c-0.2-1.6-1.4-1-2.2-1c-6.9,0-13.8,0-20.7,0c-1,0-2.1,0.2-2.7-1.1
		C35.9,26.8,35.5,26.4,35.2,26.1z"/>
	<path fill="#FBC041" d="M65.5,32.4c0.3-0.5,0.6-1,0.8-1.2c0.7-0.4,1.3-0.7,1.9-1c0.8,1,1.6,2,2.6,3.3c-2.1,0.2-4.1,0.4-6.1,0.6
		c-4.3,0-8.5,0-12.8-0.1c0.2-0.9,0.3-1.7,0.5-2.6c1.8-0.2,3.5-0.4,5.3-0.6c1.3-0.1,2.6-0.4,3.7,0.5C62.9,33.2,63,33.3,65.5,32.4z"/>
	<path fill="#FBDC5D" d="M67,23.4c-2.9,0-5.9,0-8.8,0c-0.7,0-1.4-0.3-2.1-0.5c0.9-0.9,1.7-1.8,2.6-2.7c2.5,1.2,5.1,0.3,7.7,0.5
		c0.1-1.1,0.2-2,0.3-2.8C66.7,19.8,66.9,21.6,67,23.4z"/>
	<path fill="#F7E164" d="M66.6,18c-0.1,0.8-0.2,1.7-0.3,2.8c-2.6-0.2-5.2,0.7-7.7-0.5c1.6-1.3,3-2.8,4.7-3.9C65,15.4,66,16,66.6,18z
		"/>
	<path fill="#F8E96D" d="M26,19.2c-0.1-0.2,0-0.3,0.1-0.5c0.1-0.4,0.3-0.7,0.4-1.1c0,0,0,0,0,0c0.2-0.4,0.4-0.7,0.5-1.1
		c1.7-3.3,3.3-3.7,6.1-1.5c0.8,0.6,1.5,1.4,2.3,2.1c-0.6,0.1-1.3,0.3-1.9,0.3c-1.2,0-2.4-0.3-3.3,0.7c-0.1-0.1-0.2-0.2-0.1-0.3
		c-0.2-0.2-0.3-0.4-0.7-1.1c-0.1,1-0.2,1.5-0.2,1.9c0.1,0.2,0.1,0.3-0.1,0.5C28.1,19.2,27.1,19.2,26,19.2z"/>
	<path fill="#F9DB5D" d="M42.4,22.4c0.1,0.2,0.1,0.5,0.3,1c-2.1,0-4.2-0.1-6.2,0c-1,0-2,0.3-3,0.5l0,0c-0.1-0.2-0.3-0.4-0.4-0.5
		c-0.6-1-1.2-2.1-1.8-3.1c2.2,0.2,4.4,0.4,6.7,0.7c-0.1-0.8-0.1-1.1-0.2-1.4c0.9,0.6,1.7,1.3,2.6,1.9c0.2,0.1,0.4,0.3,0.6,0.4
		c0.2-0.1,0.3,0,0.4,0.1c0.2,0.1,0.5,0.2,0.7,0.3C42.2,22.3,42.3,22.3,42.4,22.4z"/>
	<path fill="#F9E265" d="M37.7,19.6c0,0.3,0.1,0.7,0.2,1.4c-2.3-0.2-4.5-0.5-6.7-0.7c-0.3-0.7-0.6-1.4-0.9-2.1
		c0.9-1,2.1-0.7,3.3-0.7c0.6,0,1.3-0.2,1.9-0.3C36.3,18,37,18.8,37.7,19.6z"/>
	<path fill="#F7AB2D" d="M64,40.8c-2.9,0-5.7,0-8.6,0c0.3-0.9,0.6-1.7,1-2.9c1.3-0.1,2.9-0.3,4.6-0.5c0.2,0.9,0.4,1.6,0.5,2.3
		c0.5,0.1,1,0.1,1.4,0.2c0.1,0.1,0.2,0.2,0.3,0.3c0.1-0.1,0.2-0.2,0.2-0.3C63.6,40.1,63.8,40.4,64,40.8z"/>
	<path fill="#FACF51" d="M24.6,28.2c-0.1-0.2-0.1-0.5-0.2-0.7c0.1-0.7,0.1-1.3,0.2-2c1.4-0.2,2.7-0.3,4.1-0.5c0,0.7,0.1,1.3,0.1,2
		c-0.4,0.4-0.8,1-1.4,1.1C26.5,28.3,25.6,28.2,24.6,28.2z"/>
	<path fill="#F5D65A" d="M28.7,25c-1.4,0.2-2.7,0.3-4.1,0.5c0-0.4,0.1-0.7,0.1-1.1c0.1-0.4,0.2-0.8,0.3-1.2c0.2-0.8,0.4-1.7,0.6-2.5
		c0.1,0.5,0.1,1,0.2,1.7c1.1,0,2,0,3,0C28.7,23.3,28.7,24.1,28.7,25z"/>
	<path fill="#FBAD2D" d="M28.3,40.7c-1.5,0-3,0-4.5,0c0.3-1,0.5-2.1,0.8-3.1c1.2,2,2.9,0.5,4.3,0.6C28.7,39.1,28.5,39.9,28.3,40.7z"
		/>
	<path fill="#F2DC62" d="M28.8,22.4c-0.9,0-1.9,0-3,0c-0.1-0.7-0.2-1.2-0.2-1.7c-0.1-0.2,0-0.3,0.1-0.5c0.1-0.4,0.3-0.7,0.4-1.1l0,0
		c1.1,0,2.1,0,3.2,0.1c0,0.2,0,0.4-0.1,0.5c-0.1,0.7-0.2,1.5-0.4,2.2C28.9,22.1,28.9,22.3,28.8,22.4z"/>
	<path fill="#E2E2E1" d="M51.3,43.9c-0.8,0-1.5,0-2.5,0c-0.1-0.7-0.3-1.5-0.5-2.4c0.9-0.2,1.7-0.3,2.4-0.5c0-0.4,0.1-0.9,0.1-1.3
		c0.2,0.4,0.3,0.7,0.5,1.1C51.3,41.9,51.3,42.9,51.3,43.9L51.3,43.9z"/>
	<path fill="#E0DFDF" d="M75.5,38.1c0,0.9-0.1,1.8-0.1,2.7c0,0,0.1-0.1,0.1-0.1c-0.8,0.1-1.5,0.2-2.4,0.3c-0.1-0.9-0.1-1.7-0.2-2.6
		C73.8,38.4,74.6,38.3,75.5,38.1L75.5,38.1z"/>
	<path fill="#EDEDEC" d="M51.3,40.9c-0.2-0.4-0.3-0.7-0.5-1.1c0-0.3-0.1-0.7-0.1-1.2c0.8-0.2,1.6-0.3,2.6-0.5c0,1,0,1.9,0,2.7l0-0.1
		C52.7,40.8,52,40.8,51.3,40.9z"/>
	<path fill="#FACF51" d="M25,23.2c-0.1,0.4-0.2,0.8-0.3,1.2C24.8,24,24.9,23.6,25,23.2z"/>
	<path fill="#F5D65A" d="M26,19.2c-0.1,0.4-0.3,0.7-0.4,1.1C25.8,19.9,25.9,19.5,26,19.2z"/>
	<path fill="#F2DC62" d="M27.1,16.6c-0.2,0.4-0.4,0.7-0.5,1.1C26.8,17.3,27,16.9,27.1,16.6z"/>
	<path fill="#F2DC62" d="M26.6,17.6c-0.1,0.4-0.3,0.7-0.4,1.1C26.3,18.4,26.5,18,26.6,17.6z"/>
	<path fill="#FDA625" d="M63.4,39.8c-0.1,0.1-0.2,0.2-0.2,0.3c-0.1-0.1-0.2-0.2-0.3-0.3C63,39.7,63.2,39.7,63.4,39.8z"/>
	<path fill="#FBD656" d="M42,22.3c-0.2-0.1-0.5-0.2-0.7-0.3C41.6,22.1,41.8,22.2,42,22.3z"/>
	<path fill="#FBD656" d="M40.9,21.8c-0.2-0.1-0.4-0.3-0.6-0.4C40.5,21.6,40.7,21.7,40.9,21.8z"/>
	<path fill="#5BF3A7" d="M69.6,80.3c0.2,0.3,0.5,0.6,0.7,0.9C70.1,80.9,69.9,80.6,69.6,80.3z"/>
	<path fill="#5BF0A8" d="M33.1,79.1c0.1-0.2,0.3-0.3,0.4-0.5C33.3,78.8,33.2,78.9,33.1,79.1z"/>
	<path fill="#5BF0A8" d="M36.1,79.6c-0.2,0.1-0.3,0.1-0.5,0.1c0.2-0.2,0.3-0.4,0.5-0.6C36.1,79.3,36.1,79.4,36.1,79.6z"/>
	<path fill="#5AEDAE" d="M36.1,79.6c0-0.1,0-0.3,0-0.4c0.2,0.2,0.3,0.4,0.5,0.6C36.4,79.6,36.3,79.6,36.1,79.6z"/>
	<path fill="#5BF0A8" d="M32.3,80.1c0.2-0.2,0.4-0.5,0.6-0.7C32.7,79.6,32.5,79.9,32.3,80.1z"/>
	<path fill="#5AEDAE" d="M35.6,79.7c-0.1,0.2-0.1,0.3-0.2,0.5c-0.1,0-0.2,0-0.3,0C35.2,80,35.4,79.8,35.6,79.7z"/>
	<path fill="#5BF3A7" d="M69.1,79.7c0.1,0.2,0.3,0.3,0.4,0.5C69.4,80,69.3,79.9,69.1,79.7z"/>
	<path fill="#5BF0A8" d="M31.8,80.6c0.2-0.2,0.4-0.4,0.5-0.6C32.2,80.3,32,80.5,31.8,80.6z"/>
	<path fill="#5BF0A8" d="M35,80.2c0.1,0,0.2,0,0.3,0c-0.1,0.2-0.2,0.4-0.4,0.5C35,80.5,35,80.3,35,80.2z"/>
	<path fill="#5BF0A8" d="M31.3,81.2c0.2-0.2,0.4-0.4,0.5-0.6C31.7,80.8,31.5,81,31.3,81.2z"/>
	<path fill="#5BF0A8" d="M30.8,81.7c0.2-0.2,0.3-0.4,0.5-0.6C31.2,81.4,31,81.5,30.8,81.7z"/>
	<path fill="#5BF0A8" d="M34.9,81.2c-0.1,0.2-0.2,0.4-0.3,0.6C34.6,81.6,34.8,81.4,34.9,81.2z"/>
	<path fill="#5BF0A8" d="M30.3,82.3c0.2-0.2,0.3-0.4,0.5-0.6C30.7,81.9,30.5,82.1,30.3,82.3z"/>
	<path fill="#5BF3A7" d="M70.7,81.7c0.2,0.2,0.3,0.4,0.5,0.6C71.1,82.1,70.9,81.9,70.7,81.7z"/>
	<path fill="#5BF0A8" d="M29.9,82.8c0.2-0.2,0.3-0.3,0.5-0.5C30.2,82.5,30,82.6,29.9,82.8z"/>
	<path fill="#5BF0A8" d="M34.4,82.3c-0.1,0.2-0.2,0.4-0.4,0.6C34.1,82.7,34.3,82.5,34.4,82.3z"/>
	<path fill="#5BF0A8" d="M29.4,83.3c0.1-0.1,0.3-0.3,0.4-0.4C29.7,83,29.5,83.2,29.4,83.3z"/>
	<path fill="#5BF0A8" d="M33.9,83.3c-0.1,0.2-0.3,0.4-0.4,0.6C33.6,83.8,33.7,83.5,33.9,83.3z"/>
	<path fill="#5BF0A8" d="M28.6,84.3c0.2-0.2,0.4-0.5,0.5-0.7C29,83.8,28.8,84.1,28.6,84.3z"/>
	<path fill="#5BF0A8" d="M28.1,84.9c0.2-0.2,0.4-0.4,0.5-0.6C28.5,84.5,28.3,84.7,28.1,84.9z"/>
	<path fill="#5BF0A8" d="M33.3,84.4c-0.1,0.2-0.2,0.4-0.4,0.7C33.1,84.8,33.2,84.6,33.3,84.4z"/>
	<path fill="#5BF4A2" d="M27.6,85.4c0.2-0.2,0.4-0.4,0.6-0.6C28,85,27.8,85.2,27.6,85.4z"/>
	<path fill="#5BF0A8" d="M32.9,85.4c-0.1,0.2-0.3,0.5-0.4,0.7C32.6,85.9,32.7,85.7,32.9,85.4z"/>
	<path fill="#5BF79E" d="M57.7,85.5c0,0.2,0,0.3-0.1,0.5c-0.1-0.1-0.2-0.2-0.3-0.3C57.4,85.6,57.6,85.5,57.7,85.5z"/>
	<path fill="#5BF79E" d="M43.4,86.4c0-0.1-0.1-0.3-0.1-0.4c0.1,0.1,0.3,0.1,0.4,0.2C43.6,86.3,43.5,86.3,43.4,86.4z"/>
	<path fill="#59EDA2" d="M37.7,81.9c0.9,0.4,1.6,0.8,1.9,0.9c0.4,1,0.6,1.7,1,2.6c-0.3,0.8-0.8,1.8-1.2,2.7
		c-0.9,0.3-1.6,0.5-2.7,0.9c-0.3-0.2-1-0.5-1.9-0.9C35.9,85.9,36.8,83.9,37.7,81.9z"/>
	<path fill="#59EF9F" d="M52.2,84.8c0,2.3,0,4.4,0,6.6c-1.3,0-2.4,0-3.8,0c0-2.1,0-4.3,0-6.6C49.6,84.8,50.8,84.8,52.2,84.8z"/>
	<path fill="#010101" d="M66.6,46.2c2.2,0.4,4.5,0.5,5.5,2.7c0.9,2.1-0.5,3.9-1.7,5.4c-1.5,1.9-3.1,2.4-5.3,1.3
		c-1.5-0.9-3-2.1-4.1-3.4c-1.3-1.6-0.8-3.4,1-4.4C63.4,47,65.1,46.7,66.6,46.2z"/>
	<path fill="#040404" d="M54.6,59.1c-1.1-0.8-1.9-1.3-3.3-2.3c1.1-0.4,1.7-0.8,2-0.6c1,0.6,2.2,1.2,2.9,2.1
		c2.6,3.7,6.7,4.3,10.3,1.4c1.1-0.9,2.2-1.5,3.7-1.7c3.4-0.5,4.8-3.1,3.5-6.3c-0.1-0.2-0.2-0.5-0.3-0.9c0.4-0.2,0.8-0.5,1.2-0.7
		c2.5,2.9,1.7,6.9-1.5,9c-1,0.6-1.9,1.5-2.7,2.3c-1.3,1.3-2.8,2.1-4.7,2c-1,0-1.9-0.1-2.8,0C59.2,63.7,56.2,62.6,54.6,59.1z"/>
	<path fill="#060606" d="M71.8,64.5c-0.7,3.2-5.6,5.2-9.7,3.9c-0.9-0.3-1.6-0.9-2.4-1.4c0.2-0.2,0.5-0.5,0.7-0.7
		c4.1,1.3,7.7,0.4,10.8-2.6C71.4,64.1,71.6,64.3,71.8,64.5z"/>
	<path fill="#0A0805" d="M71.8,64.5c-0.2-0.2-0.4-0.4-0.7-0.7c0.2-0.5,0.4-1,0.7-1.5c0.2,0.3,0.4,0.7,0.5,1
		C72.2,63.8,72,64.1,71.8,64.5z"/>
	<path fill="#9A9692" d="M72.4,63.4c-0.2-0.3-0.4-0.7-0.5-1c0.1-0.2,0.3-0.4,0.4-0.7C72.3,62.3,72.3,62.8,72.4,63.4z"/>
	<path fill="#3E3D3B" d="M60.4,66.4c-0.2,0.2-0.5,0.5-0.7,0.7c-0.2,0-0.3,0-0.5-0.1c0-0.3,0-0.6,0-1.2C59.7,66.1,60,66.3,60.4,66.4z
		"/>
	<path fill="#1A140A" d="M51.3,40.9c0.7,0,1.4-0.1,2.1-0.1c0.2,0.7,0.4,1.5,0.6,2.4c-1,0.3-1.9,0.5-2.8,0.8
		C51.3,42.9,51.3,41.9,51.3,40.9z"/>
	<path fill="#FCC141" d="M46,34c-7,0-14.1,0-21.5,0c0-1.2,0-2.2,0-3.2c1.6-0.2,3.3,0.6,4.7-0.6c0.3,0.4,0.5,0.7,0.8,1.1
		c0.7-0.4,1.2-0.8,1.8-1.1c0.8,0.2,1.6,0.6,2.4,0.6c3.4,0.1,6.8,0,10.2,0.1c0.7,0,1.4,0.3,2.2,0.5C46.4,32.2,46.2,33.1,46,34z"/>
	<path fill="#FEDF9D" d="M46,34c0.2-0.9,0.4-1.8,0.5-2.6c0.5-0.4,1.1-0.7,1.6-1.1c0.9,0,1.7,0,2.6,0c0.5,0.4,1,0.8,1.5,1.1
		c-0.2,0.9-0.3,1.7-0.5,2.6C49.9,34.5,48,34.9,46,34z"/>
	<path fill="#FCC94A" d="M29.3,30.2c-1.4,1.2-3.1,0.4-4.7,0.6c0-0.9,0-1.7,0-2.6c0.9,0,1.9,0.1,2.8,0c0.5-0.1,0.9-0.7,1.4-1.1
		C29,28.1,29.1,29.1,29.3,30.2z"/>
	<path fill="#040301" d="M29.3,30.2c-0.2-1.1-0.3-2.1-0.5-3.2c0-0.7-0.1-1.3-0.1-2c0-0.9,0-1.8,0-2.6c0.1-0.1,0.1-0.2,0-0.4
		c0.1-0.7,0.2-1.5,0.4-2.2c0-0.2,0-0.4,0.1-0.5c0.1-0.1,0.1-0.3,0.1-0.5c0.3-0.3,0.6-0.6,1-0.9c-0.1,0.1,0,0.2,0.1,0.3
		c0.3,0.7,0.6,1.4,0.9,2.1c0.6,1,1.2,2.1,1.8,3.1c0.1,0.2,0.3,0.4,0.4,0.5l0,0c0.6,0.7,1.2,1.4,1.7,2.1c0.3,0.3,0.7,0.7,1,1
		c-0.5,0.4-0.9,0.8-1.5,1.2c-1,0.7-1.9,1.3-2.9,1.9c-0.6,0.3-1.1,0.7-1.8,1.1C29.8,30.9,29.6,30.5,29.3,30.2z"/>
	<path fill="#FCCA4B" d="M31.8,30.2c1-0.6,2-1.2,2.9-1.9c0.5-0.4,1-0.8,1.5-1.2c0.5,1.2,1.6,1.1,2.7,1.1c6.9,0,13.8,0,20.7,0
		c0.8,0,2.1-0.5,2.2,1c-0.2,0.2-0.3,0.4-0.5,0.5c-0.5-0.2-0.9-0.5-1.4-0.5c-2.8,0-5.5,0-8.3,0c-0.5,0-0.9,0.3-1.4,0.5
		c-0.7,0.2-1.4,0.3-2.1,0.5c-0.5,0.4-1.1,0.7-1.6,1.1c-0.7-0.2-1.4-0.5-2.2-0.5c-3.4-0.1-6.8,0-10.2-0.1
		C33.4,30.8,32.6,30.4,31.8,30.2z"/>
	<path fill="#FEE09F" d="M61.3,29.8c0.2-0.2,0.3-0.4,0.5-0.5c0.8,0,1.5,0,2.1,0c1.6,0.7,1.8,1.9,1.6,3.1c-2.5,0.9-2.6,0.9-4.2-1.1
		C61.3,30.8,61.3,30.3,61.3,29.8z"/>
	<path fill="#FDC94A" d="M61.3,29.8c0,0.5,0,1,0,1.6c-1.1-0.9-2.4-0.6-3.7-0.5c-1.8,0.2-3.5,0.4-5.3,0.6c-0.5-0.4-1-0.8-1.5-1.1
		c-0.2-0.2-0.3-0.3-0.5-0.5c0.5-0.2,0.9-0.5,1.4-0.5c2.8,0,5.5,0,8.3,0C60.4,29.3,60.8,29.6,61.3,29.8z"/>
	<path fill="#F2DC62" d="M30.2,17.9c-0.3,0.3-0.6,0.6-1,0.9c0.1-0.5,0.1-1,0.2-1.9C29.9,17.4,30.1,17.6,30.2,17.9z"/>
	<path fill="#FBD656" d="M33.4,24c-0.1-0.2-0.3-0.4-0.4-0.5C33.2,23.6,33.3,23.8,33.4,24z"/>
	<path fill="#F5D65A" d="M29.1,19.8c-0.1,0.7-0.2,1.5-0.4,2.2C28.9,21.3,29,20.5,29.1,19.8z"/>
	<path fill="#FCCF4F" d="M50.3,29.7c0.2,0.2,0.3,0.3,0.5,0.5c-0.9,0-1.7,0-2.6,0C48.9,30.1,49.6,29.9,50.3,29.7z"/>
</g>
<g>
</g>
<g>
</g>
<g>
</g>
<g>
</g>
<g>
</g>
<g>
</g>
</svg>
